<?xml version="1.0" encoding="utf-8" ?>
<svg baseProfile="full" height="42mm" version="1.1" viewBox="0,0,200,42" width="200mm" xmlns="http://www.w3.org/2000/svg" xmlns:ev="http://www.w3.org/2001/xml-events" xmlns:xlink="http://www.w3.org/1999/xlink"><defs /><rect fill="#ffffff" height="42" width="200" x="0" y="0" /><text alignment-baseline="hanging" fill="#333333" style="font-size:10.0px; font-family:Arial;" x="10" y="1">2023</text><text alignment-baseline="hanging" fill="#333333" style="font-size:4.125px; font-family:Arial;" x="175" y="6">30675 XP</text><text fill="#333333" style="font-size:2.5px; font-family:Arial" x="10.0" y="15">Jan</text><text fill="#333333" style="font-size:2.5px; font-family:Arial" x="25.5" y="15">Feb</text><text fill="#333333" style="font-size:2.5px; font-family:Arial" x="41.0" y="15">Mar</text><text fill="#333333" style="font-size:2.5px; font-family:Arial" x="56.5" y="15">Apr</text><text fill="#333333" style="font-size:2.5px; font-family:Arial" x="72.0" y="15">May</text><text fill="#333333" style="font-size:2.5px; font-family:Arial" x="87.5" y="15">Jun</text><text fill="#333333" style="font-size:2.5px; font-family:Arial" x="103.0" y="15">Jul</text><text fill="#333333" style="font-size:2.5px; font-family:Arial" x="118.5" y="15">Aug</text><text fill="#333333" style="font-size:2.5px; font-family:Arial" x="134.0" y="15">Sep</text><text fill="#333333" style="font-size:2.5px; font-family:Arial" x="149.5" y="15">Oct</text><text fill="#333333" style="font-size:2.5px; font-family:Arial" x="165.0" y="15">Nov</text><text fill="#333333" style="font-size:2.5px; font-family:Arial" x="180.5" y="15">Dec</text><rect fill="#EBEDF0" height="2.6" rx="0.5" ry="0.5" width="2.6" x="10.0" y="16.5"><title>2022-12-26</title></rect><rect fill="#EBEDF0" height="2.6" rx="0.5" ry="0.5" width="2.6" x="10.0" y="20.0"><title>2022-12-27</title></rect><rect fill="#EBEDF0" height="2.6" rx="0.5" ry="0.5" width="2.6" x="10.0" y="23.5"><title>2022-12-28</title></rect><rect fill="#EBEDF0" height="2.6" rx="0.5" ry="0.5" width="2.6" x="10.0" y="27.0"><title>2022-12-29</title></rect><rect fill="#EBEDF0" height="2.6" rx="0.5" ry="0.5" width="2.6" x="10.0" y="30.5"><title>2022-12-30</title></rect><rect fill="#EBEDF0" height="2.6" rx="0.5" ry="0.5" width="2.6" x="10.0" y="34.0"><title>2022-12-31</title></rect><rect fill="#a9e6ab" height="2.6" rx="0.5" ry="0.5" width="2.6" x="10.0" y="37.5"><title>2023-01-01 39 XP</title></rect><rect fill="#a9e6ab" height="2.6" rx="0.5" ry="0.5" width="2.6" x="13.5" y="16.5"><title>2023-01-02 38 XP</title></rect><rect fill="#a4e3a6" height="2.6" rx="0.5" ry="0.5" width="2.6" x="13.5" y="20.0"><title>2023-01-03 110 XP</title></rect><rect fill="#a6e4a8" height="2.6" rx="0.5" ry="0.5" width="2.6" x="13.5" y="23.5"><title>2023-01-04 79 XP</title></rect><rect fill="#abe7ad" height="2.6" rx="0.5" ry="0.5" width="2.6" x="13.5" y="27.0"><title>2023-01-05 14 XP</title></rect><rect fill="#abe7ad" height="2.6" rx="0.5" ry="0.5" width="2.6" x="13.5" y="30.5"><title>2023-01-06 14 XP</title></rect><rect fill="#abe7ad" height="2.6" rx="0.5" ry="0.5" width="2.6" x="13.5" y="34.0"><title>2023-01-07 13 XP</title></rect><rect fill="#abe6ad" height="2.6" rx="0.5" ry="0.5" width="2.6" x="13.5" y="37.5"><title>2023-01-08 20 XP</title></rect><rect fill="#aae6ac" height="2.6" rx="0.5" ry="0.5" width="2.6" x="17.0" y="16.5"><title>2023-01-09 25 XP</title></rect><rect fill="#abe6ad" height="2.6" rx="0.5" ry="0.5" width="2.6" x="17.0" y="20.0"><title>2023-01-10 23 XP</title></rect><rect fill="#abe7ad" height="2.6" rx="0.5" ry="0.5" width="2.6" x="17.0" y="23.5"><title>2023-01-11 16 XP</title></rect><rect fill="#abe7ad" height="2.6" rx="0.5" ry="0.5" width="2.6" x="17.0" y="27.0"><title>2023-01-12 12 XP</title></rect><rect fill="#a9e6ab" height="2.6" rx="0.5" ry="0.5" width="2.6" x="17.0" y="30.5"><title>2023-01-13 45 XP</title></rect><rect fill="#EBEDF0" height="2.6" rx="0.5" ry="0.5" width="2.6" x="17.0" y="34.0"><title>2023-01-14</title></rect><rect fill="#abe7ad" height="2.6" rx="0.5" ry="0.5" width="2.6" x="17.0" y="37.5"><title>2023-01-15 12 XP</title></rect><rect fill="#a9e6ab" height="2.6" rx="0.5" ry="0.5" width="2.6" x="20.5" y="16.5"><title>2023-01-16 40 XP</title></rect><rect fill="#a9e6ab" height="2.6" rx="0.5" ry="0.5" width="2.6" x="20.5" y="20.0"><title>2023-01-17 45 XP</title></rect><rect fill="#abe7ad" height="2.6" rx="0.5" ry="0.5" width="2.6" x="20.5" y="23.5"><title>2023-01-18 12 XP</title></rect><rect fill="#abe7ad" height="2.6" rx="0.5" ry="0.5" width="2.6" x="20.5" y="27.0"><title>2023-01-19 14 XP</title></rect><rect fill="#EBEDF0" height="2.6" rx="0.5" ry="0.5" width="2.6" x="20.5" y="30.5"><title>2023-01-20</title></rect><rect fill="#EBEDF0" height="2.6" rx="0.5" ry="0.5" width="2.6" x="20.5" y="34.0"><title>2023-01-21</title></rect><rect fill="#a9e6ab" height="2.6" rx="0.5" ry="0.5" width="2.6" x="20.5" y="37.5"><title>2023-01-22 43 XP</title></rect><rect fill="#67bf6b" height="2.6" rx="0.5" ry="0.5" width="2.6" x="24.0" y="16.5"><title>2023-01-23 130 XP</title></rect><rect fill="#a9e6ab" height="2.6" rx="0.5" ry="0.5" width="2.6" x="24.0" y="20.0"><title>2023-01-24 43 XP</title></rect><rect fill="#a7e5a9" height="2.6" rx="0.5" ry="0.5" width="2.6" x="24.0" y="23.5"><title>2023-01-25 64 XP</title></rect><rect fill="#a9e6ab" height="2.6" rx="0.5" ry="0.5" width="2.6" x="24.0" y="27.0"><title>2023-01-26 38 XP</title></rect><rect fill="#aae6ac" height="2.6" rx="0.5" ry="0.5" width="2.6" x="24.0" y="30.5"><title>2023-01-27 27 XP</title></rect><rect fill="#EBEDF0" height="2.6" rx="0.5" ry="0.5" width="2.6" x="24.0" y="34.0"><title>2023-01-28</title></rect><rect fill="#a3e3a5" height="2.6" rx="0.5" ry="0.5" width="2.6" x="24.0" y="37.5"><title>2023-01-29 122 XP</title></rect><rect fill="#a9e6ab" height="2.6" rx="0.5" ry="0.5" width="2.6" x="27.5" y="16.5"><title>2023-01-30 38 XP</title></rect><rect fill="#a3e3a5" height="2.6" rx="0.5" ry="0.5" width="2.6" x="27.5" y="20.0"><title>2023-01-31 118 XP</title></rect><rect fill="#aae6ac" height="2.6" rx="0.5" ry="0.5" width="2.6" x="27.5" y="23.5"><title>2023-02-01 25 XP</title></rect><rect fill="#a9e6ab" height="2.6" rx="0.5" ry="0.5" width="2.6" x="27.5" y="27.0"><title>2023-02-02 45 XP</title></rect><rect fill="#65bd6a" height="2.6" rx="0.5" ry="0.5" width="2.6" x="27.5" y="30.5"><title>2023-02-03 213 XP</title></rect><rect fill="#EBEDF0" height="2.6" rx="0.5" ry="0.5" width="2.6" x="27.5" y="34.0"><title>2023-02-04</title></rect><rect fill="#a9e6ab" height="2.6" rx="0.5" ry="0.5" width="2.6" x="27.5" y="37.5"><title>2023-02-05 43 XP</title></rect><rect fill="#a3e3a5" height="2.6" rx="0.5" ry="0.5" width="2.6" x="31.0" y="16.5"><title>2023-02-06 121 XP</title></rect><rect fill="#abe7ad" height="2.6" rx="0.5" ry="0.5" width="2.6" x="31.0" y="20.0"><title>2023-02-07 13 XP</title></rect><rect fill="#a8e5aa" height="2.6" rx="0.5" ry="0.5" width="2.6" x="31.0" y="23.5"><title>2023-02-08 53 XP</title></rect><rect fill="#a3e3a5" height="2.6" rx="0.5" ry="0.5" width="2.6" x="31.0" y="27.0"><title>2023-02-09 123 XP</title></rect><rect fill="#65bd6a" height="2.6" rx="0.5" ry="0.5" width="2.6" x="31.0" y="30.5"><title>2023-02-10 213 XP</title></rect><rect fill="#a7e5aa" height="2.6" rx="0.5" ry="0.5" width="2.6" x="31.0" y="34.0"><title>2023-02-11 63 XP</title></rect><rect fill="#a7e5a9" height="2.6" rx="0.5" ry="0.5" width="2.6" x="31.0" y="37.5"><title>2023-02-12 75 XP</title></rect><rect fill="#EBEDF0" height="2.6" rx="0.5" ry="0.5" width="2.6" x="34.5" y="16.5"><title>2023-02-13</title></rect><rect fill="#a8e5aa" height="2.6" rx="0.5" ry="0.5" width="2.6" x="34.5" y="20.0"><title>2023-02-14 60 XP</title></rect><rect fill="#a8e5aa" height="2.6" rx="0.5" ry="0.5" width="2.6" x="34.5" y="23.5"><title>2023-02-15 54 XP</title></rect><rect fill="#aae6ac" height="2.6" rx="0.5" ry="0.5" width="2.6" x="34.5" y="27.0"><title>2023-02-16 28 XP</title></rect><rect fill="#a9e6ab" height="2.6" rx="0.5" ry="0.5" width="2.6" x="34.5" y="30.5"><title>2023-02-17 40 XP</title></rect><rect fill="#aae6ac" height="2.6" rx="0.5" ry="0.5" width="2.6" x="34.5" y="34.0"><title>2023-02-18 36 XP</title></rect><rect fill="#EBEDF0" height="2.6" rx="0.5" ry="0.5" width="2.6" x="34.5" y="37.5"><title>2023-02-19</title></rect><rect fill="#EBEDF0" height="2.6" rx="0.5" ry="0.5" width="2.6" x="38.0" y="16.5"><title>2023-02-20</title></rect><rect fill="#a9e6ab" height="2.6" rx="0.5" ry="0.5" width="2.6" x="38.0" y="20.0"><title>2023-02-21 43 XP</title></rect><rect fill="#a9e6ac" height="2.6" rx="0.5" ry="0.5" width="2.6" x="38.0" y="23.5"><title>2023-02-22 37 XP</title></rect><rect fill="#a3e3a5" height="2.6" rx="0.5" ry="0.5" width="2.6" x="38.0" y="27.0"><title>2023-02-23 119 XP</title></rect><rect fill="#a9e6ab" height="2.6" rx="0.5" ry="0.5" width="2.6" x="38.0" y="30.5"><title>2023-02-24 40 XP</title></rect><rect fill="#abe7ad" height="2.6" rx="0.5" ry="0.5" width="2.6" x="38.0" y="34.0"><title>2023-02-25 14 XP</title></rect><rect fill="#abe6ad" height="2.6" rx="0.5" ry="0.5" width="2.6" x="38.0" y="37.5"><title>2023-02-26 23 XP</title></rect><rect fill="#a7e5aa" height="2.6" rx="0.5" ry="0.5" width="2.6" x="41.5" y="16.5"><title>2023-02-27 63 XP</title></rect><rect fill="#abe6ad" height="2.6" rx="0.5" ry="0.5" width="2.6" x="41.5" y="20.0"><title>2023-02-28 20 XP</title></rect><rect fill="#a9e6ab" height="2.6" rx="0.5" ry="0.5" width="2.6" x="41.5" y="23.5"><title>2023-03-01 39 XP</title></rect><rect fill="#abe7ad" height="2.6" rx="0.5" ry="0.5" width="2.6" x="41.5" y="27.0"><title>2023-03-02 14 XP</title></rect><rect fill="#a6e4a8" height="2.6" rx="0.5" ry="0.5" width="2.6" x="41.5" y="30.5"><title>2023-03-03 81 XP</title></rect><rect fill="#a8e5aa" height="2.6" rx="0.5" ry="0.5" width="2.6" x="41.5" y="34.0"><title>2023-03-04 54 XP</title></rect><rect fill="#a6e4a8" height="2.6" rx="0.5" ry="0.5" width="2.6" x="41.5" y="37.5"><title>2023-03-05 79 XP</title></rect><rect fill="#a8e5aa" height="2.6" rx="0.5" ry="0.5" width="2.6" x="45.0" y="16.5"><title>2023-03-06 52 XP</title></rect><rect fill="#a9e6ab" height="2.6" rx="0.5" ry="0.5" width="2.6" x="45.0" y="20.0"><title>2023-03-07 45 XP</title></rect><rect fill="#a3e3a5" height="2.6" rx="0.5" ry="0.5" width="2.6" x="45.0" y="23.5"><title>2023-03-08 122 XP</title></rect><rect fill="#a8e5ab" height="2.6" rx="0.5" ry="0.5" width="2.6" x="45.0" y="27.0"><title>2023-03-09 50 XP</title></rect><rect fill="#a7e5a9" height="2.6" rx="0.5" ry="0.5" width="2.6" x="45.0" y="30.5"><title>2023-03-10 74 XP</title></rect><rect fill="#a8e5aa" height="2.6" rx="0.5" ry="0.5" width="2.6" x="45.0" y="34.0"><title>2023-03-11 62 XP</title></rect><rect fill="#abe7ad" height="2.6" rx="0.5" ry="0.5" width="2.6" x="45.0" y="37.5"><title>2023-03-12 15 XP</title></rect><rect fill="#a9e6ab" height="2.6" rx="0.5" ry="0.5" width="2.6" x="48.5" y="16.5"><title>2023-03-13 42 XP</title></rect><rect fill="#abe7ad" height="2.6" rx="0.5" ry="0.5" width="2.6" x="48.5" y="20.0"><title>2023-03-14 15 XP</title></rect><rect fill="#a4e3a6" height="2.6" rx="0.5" ry="0.5" width="2.6" x="48.5" y="23.5"><title>2023-03-15 104 XP</title></rect><rect fill="#a7e5aa" height="2.6" rx="0.5" ry="0.5" width="2.6" x="48.5" y="27.0"><title>2023-03-16 63 XP</title></rect><rect fill="#a9e5ab" height="2.6" rx="0.5" ry="0.5" width="2.6" x="48.5" y="30.5"><title>2023-03-17 49 XP</title></rect><rect fill="#abe7ad" height="2.6" rx="0.5" ry="0.5" width="2.6" x="48.5" y="34.0"><title>2023-03-18 15 XP</title></rect><rect fill="#aae6ac" height="2.6" rx="0.5" ry="0.5" width="2.6" x="48.5" y="37.5"><title>2023-03-19 27 XP</title></rect><rect fill="#a8e5aa" height="2.6" rx="0.5" ry="0.5" width="2.6" x="52.0" y="16.5"><title>2023-03-20 51 XP</title></rect><rect fill="#aae6ac" height="2.6" rx="0.5" ry="0.5" width="2.6" x="52.0" y="20.0"><title>2023-03-21 28 XP</title></rect><rect fill="#EBEDF0" height="2.6" rx="0.5" ry="0.5" width="2.6" x="52.0" y="23.5"><title>2023-03-22</title></rect><rect fill="#aae6ac" height="2.6" rx="0.5" ry="0.5" width="2.6" x="52.0" y="27.0"><title>2023-03-23 32 XP</title></rect><rect fill="#abe7ad" height="2.6" rx="0.5" ry="0.5" width="2.6" x="52.0" y="30.5"><title>2023-03-24 15 XP</title></rect><rect fill="#abe6ad" height="2.6" rx="0.5" ry="0.5" width="2.6" x="52.0" y="34.0"><title>2023-03-25 23 XP</title></rect><rect fill="#a5e4a7" height="2.6" rx="0.5" ry="0.5" width="2.6" x="52.0" y="37.5"><title>2023-03-26 100 XP</title></rect><rect fill="#a8e5aa" height="2.6" rx="0.5" ry="0.5" width="2.6" x="55.5" y="16.5"><title>2023-03-27 53 XP</title></rect><rect fill="#abe7ad" height="2.6" rx="0.5" ry="0.5" width="2.6" x="55.5" y="20.0"><title>2023-03-28 12 XP</title></rect><rect fill="#abe7ad" height="2.6" rx="0.5" ry="0.5" width="2.6" x="55.5" y="23.5"><title>2023-03-29 14 XP</title></rect><rect fill="#abe6ad" height="2.6" rx="0.5" ry="0.5" width="2.6" x="55.5" y="27.0"><title>2023-03-30 24 XP</title></rect><rect fill="#abe7ad" height="2.6" rx="0.5" ry="0.5" width="2.6" x="55.5" y="30.5"><title>2023-03-31 14 XP</title></rect><rect fill="#abe7ad" height="2.6" rx="0.5" ry="0.5" width="2.6" x="55.5" y="34.0"><title>2023-04-01 15 XP</title></rect><rect fill="#abe7ad" height="2.6" rx="0.5" ry="0.5" width="2.6" x="55.5" y="37.5"><title>2023-04-02 13 XP</title></rect><rect fill="#aae6ac" height="2.6" rx="0.5" ry="0.5" width="2.6" x="59.0" y="16.5"><title>2023-04-03 28 XP</title></rect><rect fill="#aae6ac" height="2.6" rx="0.5" ry="0.5" width="2.6" x="59.0" y="20.0"><title>2023-04-04 25 XP</title></rect><rect fill="#a4e3a6" height="2.6" rx="0.5" ry="0.5" width="2.6" x="59.0" y="23.5"><title>2023-04-05 104 XP</title></rect><rect fill="#abe7ad" height="2.6" rx="0.5" ry="0.5" width="2.6" x="59.0" y="27.0"><title>2023-04-06 13 XP</title></rect><rect fill="#EBEDF0" height="2.6" rx="0.5" ry="0.5" width="2.6" x="59.0" y="30.5"><title>2023-04-07</title></rect><rect fill="#a7e5a9" height="2.6" rx="0.5" ry="0.5" width="2.6" x="59.0" y="34.0"><title>2023-04-08 69 XP</title></rect><rect fill="#abe7ad" height="2.6" rx="0.5" ry="0.5" width="2.6" x="59.0" y="37.5"><title>2023-04-09 13 XP</title></rect><rect fill="#abe7ad" height="2.6" rx="0.5" ry="0.5" width="2.6" x="62.5" y="16.5"><title>2023-04-10 13 XP</title></rect><rect fill="#abe7ad" height="2.6" rx="0.5" ry="0.5" width="2.6" x="62.5" y="20.0"><title>2023-04-11 15 XP</title></rect><rect fill="#a9e5ab" height="2.6" rx="0.5" ry="0.5" width="2.6" x="62.5" y="23.5"><title>2023-04-12 49 XP</title></rect><rect fill="#a7e5a9" height="2.6" rx="0.5" ry="0.5" width="2.6" x="62.5" y="27.0"><title>2023-04-13 67 XP</title></rect><rect fill="#aae6ac" height="2.6" rx="0.5" ry="0.5" width="2.6" x="62.5" y="30.5"><title>2023-04-14 27 XP</title></rect><rect fill="#ace7ae" height="2.6" rx="0.5" ry="0.5" width="2.6" x="62.5" y="34.0"><title>2023-04-15 8 XP</title></rect><rect fill="#EBEDF0" height="2.6" rx="0.5" ry="0.5" width="2.6" x="62.5" y="37.5"><title>2023-04-16</title></rect><rect fill="#a7e5a9" height="2.6" rx="0.5" ry="0.5" width="2.6" x="66.0" y="16.5"><title>2023-04-17 67 XP</title></rect><rect fill="#aae6ac" height="2.6" rx="0.5" ry="0.5" width="2.6" x="66.0" y="20.0"><title>2023-04-18 30 XP</title></rect><rect fill="#abe7ad" height="2.6" rx="0.5" ry="0.5" width="2.6" x="66.0" y="23.5"><title>2023-04-19 14 XP</title></rect><rect fill="#EBEDF0" height="2.6" rx="0.5" ry="0.5" width="2.6" x="66.0" y="27.0"><title>2023-04-20</title></rect><rect fill="#abe6ad" height="2.6" rx="0.5" ry="0.5" width="2.6" x="66.0" y="30.5"><title>2023-04-21 22 XP</title></rect><rect fill="#abe6ad" height="2.6" rx="0.5" ry="0.5" width="2.6" x="66.0" y="34.0"><title>2023-04-22 24 XP</title></rect><rect fill="#ace7ae" height="2.6" rx="0.5" ry="0.5" width="2.6" x="66.0" y="37.5"><title>2023-04-23 8 XP</title></rect><rect fill="#a9e6ab" height="2.6" rx="0.5" ry="0.5" width="2.6" x="69.5" y="16.5"><title>2023-04-24 42 XP</title></rect><rect fill="#a6e4a8" height="2.6" rx="0.5" ry="0.5" width="2.6" x="69.5" y="20.0"><title>2023-04-25 77 XP</title></rect><rect fill="#EBEDF0" height="2.6" rx="0.5" ry="0.5" width="2.6" x="69.5" y="23.5"><title>2023-04-26</title></rect><rect fill="#EBEDF0" height="2.6" rx="0.5" ry="0.5" width="2.6" x="69.5" y="27.0"><title>2023-04-27</title></rect><rect fill="#EBEDF0" height="2.6" rx="0.5" ry="0.5" width="2.6" x="69.5" y="30.5"><title>2023-04-28</title></rect><rect fill="#EBEDF0" height="2.6" rx="0.5" ry="0.5" width="2.6" x="69.5" y="34.0"><title>2023-04-29</title></rect><rect fill="#EBEDF0" height="2.6" rx="0.5" ry="0.5" width="2.6" x="69.5" y="37.5"><title>2023-04-30</title></rect><rect fill="#EBEDF0" height="2.6" rx="0.5" ry="0.5" width="2.6" x="73.0" y="16.5"><title>2023-05-01</title></rect><rect fill="#EBEDF0" height="2.6" rx="0.5" ry="0.5" width="2.6" x="73.0" y="20.0"><title>2023-05-02</title></rect><rect fill="#EBEDF0" height="2.6" rx="0.5" ry="0.5" width="2.6" x="73.0" y="23.5"><title>2023-05-03</title></rect><rect fill="#abe7ad" height="2.6" rx="0.5" ry="0.5" width="2.6" x="73.0" y="27.0"><title>2023-05-04 13 XP</title></rect><rect fill="#abe7ad" height="2.6" rx="0.5" ry="0.5" width="2.6" x="73.0" y="30.5"><title>2023-05-05 13 XP</title></rect><rect fill="#EBEDF0" height="2.6" rx="0.5" ry="0.5" width="2.6" x="73.0" y="34.0"><title>2023-05-06</title></rect><rect fill="#EBEDF0" height="2.6" rx="0.5" ry="0.5" width="2.6" x="73.0" y="37.5"><title>2023-05-07</title></rect><rect fill="#EBEDF0" height="2.6" rx="0.5" ry="0.5" width="2.6" x="76.5" y="16.5"><title>2023-05-08</title></rect><rect fill="#EBEDF0" height="2.6" rx="0.5" ry="0.5" width="2.6" x="76.5" y="20.0"><title>2023-05-09</title></rect><rect fill="#EBEDF0" height="2.6" rx="0.5" ry="0.5" width="2.6" x="76.5" y="23.5"><title>2023-05-10</title></rect><rect fill="#EBEDF0" height="2.6" rx="0.5" ry="0.5" width="2.6" x="76.5" y="27.0"><title>2023-05-11</title></rect><rect fill="#EBEDF0" height="2.6" rx="0.5" ry="0.5" width="2.6" x="76.5" y="30.5"><title>2023-05-12</title></rect><rect fill="#EBEDF0" height="2.6" rx="0.5" ry="0.5" width="2.6" x="76.5" y="34.0"><title>2023-05-13</title></rect><rect fill="#EBEDF0" height="2.6" rx="0.5" ry="0.5" width="2.6" x="76.5" y="37.5"><title>2023-05-14</title></rect><rect fill="#EBEDF0" height="2.6" rx="0.5" ry="0.5" width="2.6" x="80.0" y="16.5"><title>2023-05-15</title></rect><rect fill="#EBEDF0" height="2.6" rx="0.5" ry="0.5" width="2.6" x="80.0" y="20.0"><title>2023-05-16</title></rect><rect fill="#EBEDF0" height="2.6" rx="0.5" ry="0.5" width="2.6" x="80.0" y="23.5"><title>2023-05-17</title></rect><rect fill="#EBEDF0" height="2.6" rx="0.5" ry="0.5" width="2.6" x="80.0" y="27.0"><title>2023-05-18</title></rect><rect fill="#EBEDF0" height="2.6" rx="0.5" ry="0.5" width="2.6" x="80.0" y="30.5"><title>2023-05-19</title></rect><rect fill="#EBEDF0" height="2.6" rx="0.5" ry="0.5" width="2.6" x="80.0" y="34.0"><title>2023-05-20</title></rect><rect fill="#EBEDF0" height="2.6" rx="0.5" ry="0.5" width="2.6" x="80.0" y="37.5"><title>2023-05-21</title></rect><rect fill="#EBEDF0" height="2.6" rx="0.5" ry="0.5" width="2.6" x="83.5" y="16.5"><title>2023-05-22</title></rect><rect fill="#abe7ad" height="2.6" rx="0.5" ry="0.5" width="2.6" x="83.5" y="20.0"><title>2023-05-23 13 XP</title></rect><rect fill="#aae6ac" height="2.6" rx="0.5" ry="0.5" width="2.6" x="83.5" y="23.5"><title>2023-05-24 25 XP</title></rect><rect fill="#aae6ac" height="2.6" rx="0.5" ry="0.5" width="2.6" x="83.5" y="27.0"><title>2023-05-25 28 XP</title></rect><rect fill="#a9e6ab" height="2.6" rx="0.5" ry="0.5" width="2.6" x="83.5" y="30.5"><title>2023-05-26 41 XP</title></rect><rect fill="#abe6ad" height="2.6" rx="0.5" ry="0.5" width="2.6" x="83.5" y="34.0"><title>2023-05-27 23 XP</title></rect><rect fill="#abe7ad" height="2.6" rx="0.5" ry="0.5" width="2.6" x="83.5" y="37.5"><title>2023-05-28 14 XP</title></rect><rect fill="#EBEDF0" height="2.6" rx="0.5" ry="0.5" width="2.6" x="87.0" y="16.5"><title>2023-05-29</title></rect><rect fill="#EBEDF0" height="2.6" rx="0.5" ry="0.5" width="2.6" x="87.0" y="20.0"><title>2023-05-30</title></rect><rect fill="#EBEDF0" height="2.6" rx="0.5" ry="0.5" width="2.6" x="87.0" y="23.5"><title>2023-05-31</title></rect><rect fill="#a9e6ac" height="2.6" rx="0.5" ry="0.5" width="2.6" x="87.0" y="27.0"><title>2023-06-01 37 XP</title></rect><rect fill="#a8e5aa" height="2.6" rx="0.5" ry="0.5" width="2.6" x="87.0" y="30.5"><title>2023-06-02 59 XP</title></rect><rect fill="#a9e6ab" height="2.6" rx="0.5" ry="0.5" width="2.6" x="87.0" y="34.0"><title>2023-06-03 46 XP</title></rect><rect fill="#a9e6ab" height="2.6" rx="0.5" ry="0.5" width="2.6" x="87.0" y="37.5"><title>2023-06-04 43 XP</title></rect><rect fill="#ace7ae" height="2.6" rx="0.5" ry="0.5" width="2.6" x="90.5" y="16.5"><title>2023-06-05 5 XP</title></rect><rect fill="#64bc68" height="2.6" rx="0.5" ry="0.5" width="2.6" x="90.5" y="20.0"><title>2023-06-06 280 XP</title></rect><rect fill="#aae6ac" height="2.6" rx="0.5" ry="0.5" width="2.6" x="90.5" y="23.5"><title>2023-06-07 36 XP</title></rect><rect fill="#a3e3a5" height="2.6" rx="0.5" ry="0.5" width="2.6" x="90.5" y="27.0"><title>2023-06-08 122 XP</title></rect><rect fill="#a7e5a9" height="2.6" rx="0.5" ry="0.5" width="2.6" x="90.5" y="30.5"><title>2023-06-09 71 XP</title></rect><rect fill="#a7e5a9" height="2.6" rx="0.5" ry="0.5" width="2.6" x="90.5" y="34.0"><title>2023-06-10 67 XP</title></rect><rect fill="#65bd6a" height="2.6" rx="0.5" ry="0.5" width="2.6" x="90.5" y="37.5"><title>2023-06-11 206 XP</title></rect><rect fill="#aae6ac" height="2.6" rx="0.5" ry="0.5" width="2.6" x="94.0" y="16.5"><title>2023-06-12 26 XP</title></rect><rect fill="#65bd6a" height="2.6" rx="0.5" ry="0.5" width="2.6" x="94.0" y="20.0"><title>2023-06-13 189 XP</title></rect><rect fill="#64bc69" height="2.6" rx="0.5" ry="0.5" width="2.6" x="94.0" y="23.5"><title>2023-06-14 251 XP</title></rect><rect fill="#a6e4a8" height="2.6" rx="0.5" ry="0.5" width="2.6" x="94.0" y="27.0"><title>2023-06-15 88 XP</title></rect><rect fill="#66be6b" height="2.6" rx="0.5" ry="0.5" width="2.6" x="94.0" y="30.5"><title>2023-06-16 148 XP</title></rect><rect fill="#66be6a" height="2.6" rx="0.5" ry="0.5" width="2.6" x="94.0" y="34.0"><title>2023-06-17 182 XP</title></rect><rect fill="#a5e4a7" height="2.6" rx="0.5" ry="0.5" width="2.6" x="94.0" y="37.5"><title>2023-06-18 92 XP</title></rect><rect fill="#64bc68" height="2.6" rx="0.5" ry="0.5" width="2.6" x="97.5" y="16.5"><title>2023-06-19 282 XP</title></rect><rect fill="#65bd6a" height="2.6" rx="0.5" ry="0.5" width="2.6" x="97.5" y="20.0"><title>2023-06-20 206 XP</title></rect><rect fill="#66be6b" height="2.6" rx="0.5" ry="0.5" width="2.6" x="97.5" y="23.5"><title>2023-06-21 144 XP</title></rect><rect fill="#65bd6a" height="2.6" rx="0.5" ry="0.5" width="2.6" x="97.5" y="27.0"><title>2023-06-22 199 XP</title></rect><rect fill="#aae6ac" height="2.6" rx="0.5" ry="0.5" width="2.6" x="97.5" y="30.5"><title>2023-06-23 34 XP</title></rect><rect fill="#a8e5aa" height="2.6" rx="0.5" ry="0.5" width="2.6" x="97.5" y="34.0"><title>2023-06-24 62 XP</title></rect><rect fill="#66be6b" height="2.6" rx="0.5" ry="0.5" width="2.6" x="97.5" y="37.5"><title>2023-06-25 142 XP</title></rect><rect fill="#64bc69" height="2.6" rx="0.5" ry="0.5" width="2.6" x="101.0" y="16.5"><title>2023-06-26 273 XP</title></rect><rect fill="#65bd6a" height="2.6" rx="0.5" ry="0.5" width="2.6" x="101.0" y="20.0"><title>2023-06-27 207 XP</title></rect><rect fill="#a3e3a5" height="2.6" rx="0.5" ry="0.5" width="2.6" x="101.0" y="23.5"><title>2023-06-28 121 XP</title></rect><rect fill="#a8e5aa" height="2.6" rx="0.5" ry="0.5" width="2.6" x="101.0" y="27.0"><title>2023-06-29 52 XP</title></rect><rect fill="#65bc69" height="2.6" rx="0.5" ry="0.5" width="2.6" x="101.0" y="30.5"><title>2023-06-30 238 XP</title></rect><rect fill="#64bb68" height="2.6" rx="0.5" ry="0.5" width="2.6" x="101.0" y="34.0"><title>2023-07-01 286 XP</title></rect><rect fill="#64bc69" height="2.6" rx="0.5" ry="0.5" width="2.6" x="101.0" y="37.5"><title>2023-07-02 242 XP</title></rect><rect fill="#67bf6c" height="2.6" rx="0.5" ry="0.5" width="2.6" x="104.5" y="16.5"><title>2023-07-03 127 XP</title></rect><rect fill="#a4e3a6" height="2.6" rx="0.5" ry="0.5" width="2.6" x="104.5" y="20.0"><title>2023-07-04 113 XP</title></rect><rect fill="#abe7ad" height="2.6" rx="0.5" ry="0.5" width="2.6" x="104.5" y="23.5"><title>2023-07-05 13 XP</title></rect><rect fill="#a8e5aa" height="2.6" rx="0.5" ry="0.5" width="2.6" x="104.5" y="27.0"><title>2023-07-06 51 XP</title></rect><rect fill="#a9e6ab" height="2.6" rx="0.5" ry="0.5" width="2.6" x="104.5" y="30.5"><title>2023-07-07 40 XP</title></rect><rect fill="#abe7ad" height="2.6" rx="0.5" ry="0.5" width="2.6" x="104.5" y="34.0"><title>2023-07-08 15 XP</title></rect><rect fill="#a7e5a9" height="2.6" rx="0.5" ry="0.5" width="2.6" x="104.5" y="37.5"><title>2023-07-09 75 XP</title></rect><rect fill="#66be6b" height="2.6" rx="0.5" ry="0.5" width="2.6" x="108.0" y="16.5"><title>2023-07-10 135 XP</title></rect><rect fill="#a4e3a6" height="2.6" rx="0.5" ry="0.5" width="2.6" x="108.0" y="20.0"><title>2023-07-11 113 XP</title></rect><rect fill="#EBEDF0" height="2.6" rx="0.5" ry="0.5" width="2.6" x="108.0" y="23.5"><title>2023-07-12</title></rect><rect fill="#a8e5aa" height="2.6" rx="0.5" ry="0.5" width="2.6" x="108.0" y="27.0"><title>2023-07-13 59 XP</title></rect><rect fill="#549F57" height="2.6" rx="0.5" ry="0.5" width="2.6" x="108.0" y="30.5"><title>2023-07-14 600 XP</title></rect><rect fill="#64bb68" height="2.6" rx="0.5" ry="0.5" width="2.6" x="108.0" y="34.0"><title>2023-07-15 290 XP</title></rect><rect fill="#66be6b" height="2.6" rx="0.5" ry="0.5" width="2.6" x="108.0" y="37.5"><title>2023-07-16 173 XP</title></rect><rect fill="#66bd6a" height="2.6" rx="0.5" ry="0.5" width="2.6" x="111.5" y="16.5"><title>2023-07-17 183 XP</title></rect><rect fill="#a5e4a7" height="2.6" rx="0.5" ry="0.5" width="2.6" x="111.5" y="20.0"><title>2023-07-18 92 XP</title></rect><rect fill="#a4e4a7" height="2.6" rx="0.5" ry="0.5" width="2.6" x="111.5" y="23.5"><title>2023-07-19 102 XP</title></rect><rect fill="#67bf6c" height="2.6" rx="0.5" ry="0.5" width="2.6" x="111.5" y="27.0"><title>2023-07-20 124 XP</title></rect><rect fill="#64bc69" height="2.6" rx="0.5" ry="0.5" width="2.6" x="111.5" y="30.5"><title>2023-07-21 249 XP</title></rect><rect fill="#549F57" height="2.6" rx="0.5" ry="0.5" width="2.6" x="111.5" y="34.0"><title>2023-07-22 436 XP</title></rect><rect fill="#66be6b" height="2.6" rx="0.5" ry="0.5" width="2.6" x="111.5" y="37.5"><title>2023-07-23 154 XP</title></rect><rect fill="#62ba67" height="2.6" rx="0.5" ry="0.5" width="2.6" x="115.0" y="16.5"><title>2023-07-24 369 XP</title></rect><rect fill="#549F57" height="2.6" rx="0.5" ry="0.5" width="2.6" x="115.0" y="20.0"><title>2023-07-25 574 XP</title></rect><rect fill="#a5e4a7" height="2.6" rx="0.5" ry="0.5" width="2.6" x="115.0" y="23.5"><title>2023-07-26 93 XP</title></rect><rect fill="#549F57" height="2.6" rx="0.5" ry="0.5" width="2.6" x="115.0" y="27.0"><title>2023-07-27 428 XP</title></rect><rect fill="#65bd6a" height="2.6" rx="0.5" ry="0.5" width="2.6" x="115.0" y="30.5"><title>2023-07-28 202 XP</title></rect><rect fill="#66be6b" height="2.6" rx="0.5" ry="0.5" width="2.6" x="115.0" y="34.0"><title>2023-07-29 159 XP</title></rect><rect fill="#63bb68" height="2.6" rx="0.5" ry="0.5" width="2.6" x="115.0" y="37.5"><title>2023-07-30 317 XP</title></rect><rect fill="#549F57" height="2.6" rx="0.5" ry="0.5" width="2.6" x="118.5" y="16.5"><title>2023-07-31 484 XP</title></rect><rect fill="#64bc69" height="2.6" rx="0.5" ry="0.5" width="2.6" x="118.5" y="20.0"><title>2023-08-01 263 XP</title></rect><rect fill="#65bd6a" height="2.6" rx="0.5" ry="0.5" width="2.6" x="118.5" y="23.5"><title>2023-08-02 221 XP</title></rect><rect fill="#549F57" height="2.6" rx="0.5" ry="0.5" width="2.6" x="118.5" y="27.0"><title>2023-08-03 430 XP</title></rect><rect fill="#a4e3a6" height="2.6" rx="0.5" ry="0.5" width="2.6" x="118.5" y="30.5"><title>2023-08-04 110 XP</title></rect><rect fill="#aae6ac" height="2.6" rx="0.5" ry="0.5" width="2.6" x="118.5" y="34.0"><title>2023-08-05 28 XP</title></rect><rect fill="#abe7ad" height="2.6" rx="0.5" ry="0.5" width="2.6" x="118.5" y="37.5"><title>2023-08-06 15 XP</title></rect><rect fill="#64bc69" height="2.6" rx="0.5" ry="0.5" width="2.6" x="122.0" y="16.5"><title>2023-08-07 262 XP</title></rect><rect fill="#66be6b" height="2.6" rx="0.5" ry="0.5" width="2.6" x="122.0" y="20.0"><title>2023-08-08 155 XP</title></rect><rect fill="#549F57" height="2.6" rx="0.5" ry="0.5" width="2.6" x="122.0" y="23.5"><title>2023-08-09 377 XP</title></rect><rect fill="#62ba67" height="2.6" rx="0.5" ry="0.5" width="2.6" x="122.0" y="27.0"><title>2023-08-10 365 XP</title></rect><rect fill="#abe7ad" height="2.6" rx="0.5" ry="0.5" width="2.6" x="122.0" y="30.5"><title>2023-08-11 15 XP</title></rect><rect fill="#a6e4a8" height="2.6" rx="0.5" ry="0.5" width="2.6" x="122.0" y="34.0"><title>2023-08-12 88 XP</title></rect><rect fill="#549F57" height="2.6" rx="0.5" ry="0.5" width="2.6" x="122.0" y="37.5"><title>2023-08-13 590 XP</title></rect><rect fill="#549F57" height="2.6" rx="0.5" ry="0.5" width="2.6" x="125.5" y="16.5"><title>2023-08-14 805 XP</title></rect><rect fill="#549F57" height="2.6" rx="0.5" ry="0.5" width="2.6" x="125.5" y="20.0"><title>2023-08-15 625 XP</title></rect><rect fill="#549F57" height="2.6" rx="0.5" ry="0.5" width="2.6" x="125.5" y="23.5"><title>2023-08-16 515 XP</title></rect><rect fill="#549F57" height="2.6" rx="0.5" ry="0.5" width="2.6" x="125.5" y="27.0"><title>2023-08-17 1299 XP</title></rect><rect fill="#549F57" height="2.6" rx="0.5" ry="0.5" width="2.6" x="125.5" y="30.5"><title>2023-08-18 826 XP</title></rect><rect fill="#62ba67" height="2.6" rx="0.5" ry="0.5" width="2.6" x="125.5" y="34.0"><title>2023-08-19 367 XP</title></rect><rect fill="#549F57" height="2.6" rx="0.5" ry="0.5" width="2.6" x="125.5" y="37.5"><title>2023-08-20 450 XP</title></rect><rect fill="#549F57" height="2.6" rx="0.5" ry="0.5" width="2.6" x="129.0" y="16.5"><title>2023-08-21 575 XP</title></rect><rect fill="#549F57" height="2.6" rx="0.5" ry="0.5" width="2.6" x="129.0" y="20.0"><title>2023-08-22 440 XP</title></rect><rect fill="#549F57" height="2.6" rx="0.5" ry="0.5" width="2.6" x="129.0" y="23.5"><title>2023-08-23 492 XP</title></rect><rect fill="#549F57" height="2.6" rx="0.5" ry="0.5" width="2.6" x="129.0" y="27.0"><title>2023-08-24 750 XP</title></rect><rect fill="#549F57" height="2.6" rx="0.5" ry="0.5" width="2.6" x="129.0" y="30.5"><title>2023-08-25 1415 XP</title></rect><rect fill="#66be6b" height="2.6" rx="0.5" ry="0.5" width="2.6" x="129.0" y="34.0"><title>2023-08-26 142 XP</title></rect><rect fill="#67bf6b" height="2.6" rx="0.5" ry="0.5" width="2.6" x="129.0" y="37.5"><title>2023-08-27 130 XP</title></rect><rect fill="#549F57" height="2.6" rx="0.5" ry="0.5" width="2.6" x="132.5" y="16.5"><title>2023-08-28 897 XP</title></rect><rect fill="#549F57" height="2.6" rx="0.5" ry="0.5" width="2.6" x="132.5" y="20.0"><title>2023-08-29 515 XP</title></rect><rect fill="#549F57" height="2.6" rx="0.5" ry="0.5" width="2.6" x="132.5" y="23.5"><title>2023-08-30 720 XP</title></rect><rect fill="#549F57" height="2.6" rx="0.5" ry="0.5" width="2.6" x="132.5" y="27.0"><title>2023-08-31 485 XP</title></rect><rect fill="#549F57" height="2.6" rx="0.5" ry="0.5" width="2.6" x="132.5" y="30.5"><title>2023-09-01 990 XP</title></rect><rect fill="#a7e5a9" height="2.6" rx="0.5" ry="0.5" width="2.6" x="132.5" y="34.0"><title>2023-09-02 73 XP</title></rect><rect fill="#EBEDF0" height="2.6" rx="0.5" ry="0.5" width="2.6" x="132.5" y="37.5"><title>2023-09-03</title></rect><rect fill="#EBEDF0" height="2.6" rx="0.5" ry="0.5" width="2.6" x="136.0" y="16.5"><title>2023-09-04</title></rect><rect fill="#EBEDF0" height="2.6" rx="0.5" ry="0.5" width="2.6" x="136.0" y="20.0"><title>2023-09-05</title></rect><rect fill="#EBEDF0" height="2.6" rx="0.5" ry="0.5" width="2.6" x="136.0" y="23.5"><title>2023-09-06</title></rect><rect fill="#EBEDF0" height="2.6" rx="0.5" ry="0.5" width="2.6" x="136.0" y="27.0"><title>2023-09-07</title></rect><rect fill="#EBEDF0" height="2.6" rx="0.5" ry="0.5" width="2.6" x="136.0" y="30.5"><title>2023-09-08</title></rect><rect fill="#EBEDF0" height="2.6" rx="0.5" ry="0.5" width="2.6" x="136.0" y="34.0"><title>2023-09-09</title></rect><rect fill="#EBEDF0" height="2.6" rx="0.5" ry="0.5" width="2.6" x="136.0" y="37.5"><title>2023-09-10</title></rect><rect fill="#EBEDF0" height="2.6" rx="0.5" ry="0.5" width="2.6" x="139.5" y="16.5"><title>2023-09-11</title></rect><rect fill="#EBEDF0" height="2.6" rx="0.5" ry="0.5" width="2.6" x="139.5" y="20.0"><title>2023-09-12</title></rect><rect fill="#EBEDF0" height="2.6" rx="0.5" ry="0.5" width="2.6" x="139.5" y="23.5"><title>2023-09-13</title></rect><rect fill="#EBEDF0" height="2.6" rx="0.5" ry="0.5" width="2.6" x="139.5" y="27.0"><title>2023-09-14</title></rect><rect fill="#EBEDF0" height="2.6" rx="0.5" ry="0.5" width="2.6" x="139.5" y="30.5"><title>2023-09-15</title></rect><rect fill="#EBEDF0" height="2.6" rx="0.5" ry="0.5" width="2.6" x="139.5" y="34.0"><title>2023-09-16</title></rect><rect fill="#EBEDF0" height="2.6" rx="0.5" ry="0.5" width="2.6" x="139.5" y="37.5"><title>2023-09-17</title></rect><rect fill="#EBEDF0" height="2.6" rx="0.5" ry="0.5" width="2.6" x="143.0" y="16.5"><title>2023-09-18</title></rect><rect fill="#EBEDF0" height="2.6" rx="0.5" ry="0.5" width="2.6" x="143.0" y="20.0"><title>2023-09-19</title></rect><rect fill="#EBEDF0" height="2.6" rx="0.5" ry="0.5" width="2.6" x="143.0" y="23.5"><title>2023-09-20</title></rect><rect fill="#EBEDF0" height="2.6" rx="0.5" ry="0.5" width="2.6" x="143.0" y="27.0"><title>2023-09-21</title></rect><rect fill="#EBEDF0" height="2.6" rx="0.5" ry="0.5" width="2.6" x="143.0" y="30.5"><title>2023-09-22</title></rect><rect fill="#EBEDF0" height="2.6" rx="0.5" ry="0.5" width="2.6" x="143.0" y="34.0"><title>2023-09-23</title></rect><rect fill="#EBEDF0" height="2.6" rx="0.5" ry="0.5" width="2.6" x="143.0" y="37.5"><title>2023-09-24</title></rect><rect fill="#EBEDF0" height="2.6" rx="0.5" ry="0.5" width="2.6" x="146.5" y="16.5"><title>2023-09-25</title></rect><rect fill="#EBEDF0" height="2.6" rx="0.5" ry="0.5" width="2.6" x="146.5" y="20.0"><title>2023-09-26</title></rect><rect fill="#EBEDF0" height="2.6" rx="0.5" ry="0.5" width="2.6" x="146.5" y="23.5"><title>2023-09-27</title></rect><rect fill="#EBEDF0" height="2.6" rx="0.5" ry="0.5" width="2.6" x="146.5" y="27.0"><title>2023-09-28</title></rect><rect fill="#EBEDF0" height="2.6" rx="0.5" ry="0.5" width="2.6" x="146.5" y="30.5"><title>2023-09-29</title></rect><rect fill="#EBEDF0" height="2.6" rx="0.5" ry="0.5" width="2.6" x="146.5" y="34.0"><title>2023-09-30</title></rect><rect fill="#EBEDF0" height="2.6" rx="0.5" ry="0.5" width="2.6" x="146.5" y="37.5"><title>2023-10-01</title></rect><rect fill="#EBEDF0" height="2.6" rx="0.5" ry="0.5" width="2.6" x="150.0" y="16.5"><title>2023-10-02</title></rect><rect fill="#EBEDF0" height="2.6" rx="0.5" ry="0.5" width="2.6" x="150.0" y="20.0"><title>2023-10-03</title></rect><rect fill="#EBEDF0" height="2.6" rx="0.5" ry="0.5" width="2.6" x="150.0" y="23.5"><title>2023-10-04</title></rect><rect fill="#EBEDF0" height="2.6" rx="0.5" ry="0.5" width="2.6" x="150.0" y="27.0"><title>2023-10-05</title></rect><rect fill="#EBEDF0" height="2.6" rx="0.5" ry="0.5" width="2.6" x="150.0" y="30.5"><title>2023-10-06</title></rect><rect fill="#EBEDF0" height="2.6" rx="0.5" ry="0.5" width="2.6" x="150.0" y="34.0"><title>2023-10-07</title></rect><rect fill="#EBEDF0" height="2.6" rx="0.5" ry="0.5" width="2.6" x="150.0" y="37.5"><title>2023-10-08</title></rect><rect fill="#EBEDF0" height="2.6" rx="0.5" ry="0.5" width="2.6" x="153.5" y="16.5"><title>2023-10-09</title></rect><rect fill="#EBEDF0" height="2.6" rx="0.5" ry="0.5" width="2.6" x="153.5" y="20.0"><title>2023-10-10</title></rect><rect fill="#EBEDF0" height="2.6" rx="0.5" ry="0.5" width="2.6" x="153.5" y="23.5"><title>2023-10-11</title></rect><rect fill="#EBEDF0" height="2.6" rx="0.5" ry="0.5" width="2.6" x="153.5" y="27.0"><title>2023-10-12</title></rect><rect fill="#EBEDF0" height="2.6" rx="0.5" ry="0.5" width="2.6" x="153.5" y="30.5"><title>2023-10-13</title></rect><rect fill="#EBEDF0" height="2.6" rx="0.5" ry="0.5" width="2.6" x="153.5" y="34.0"><title>2023-10-14</title></rect><rect fill="#EBEDF0" height="2.6" rx="0.5" ry="0.5" width="2.6" x="153.5" y="37.5"><title>2023-10-15</title></rect><rect fill="#EBEDF0" height="2.6" rx="0.5" ry="0.5" width="2.6" x="157.0" y="16.5"><title>2023-10-16</title></rect><rect fill="#EBEDF0" height="2.6" rx="0.5" ry="0.5" width="2.6" x="157.0" y="20.0"><title>2023-10-17</title></rect><rect fill="#EBEDF0" height="2.6" rx="0.5" ry="0.5" width="2.6" x="157.0" y="23.5"><title>2023-10-18</title></rect><rect fill="#EBEDF0" height="2.6" rx="0.5" ry="0.5" width="2.6" x="157.0" y="27.0"><title>2023-10-19</title></rect><rect fill="#EBEDF0" height="2.6" rx="0.5" ry="0.5" width="2.6" x="157.0" y="30.5"><title>2023-10-20</title></rect><rect fill="#EBEDF0" height="2.6" rx="0.5" ry="0.5" width="2.6" x="157.0" y="34.0"><title>2023-10-21</title></rect><rect fill="#EBEDF0" height="2.6" rx="0.5" ry="0.5" width="2.6" x="157.0" y="37.5"><title>2023-10-22</title></rect><rect fill="#EBEDF0" height="2.6" rx="0.5" ry="0.5" width="2.6" x="160.5" y="16.5"><title>2023-10-23</title></rect><rect fill="#EBEDF0" height="2.6" rx="0.5" ry="0.5" width="2.6" x="160.5" y="20.0"><title>2023-10-24</title></rect><rect fill="#EBEDF0" height="2.6" rx="0.5" ry="0.5" width="2.6" x="160.5" y="23.5"><title>2023-10-25</title></rect><rect fill="#EBEDF0" height="2.6" rx="0.5" ry="0.5" width="2.6" x="160.5" y="27.0"><title>2023-10-26</title></rect><rect fill="#EBEDF0" height="2.6" rx="0.5" ry="0.5" width="2.6" x="160.5" y="30.5"><title>2023-10-27</title></rect><rect fill="#EBEDF0" height="2.6" rx="0.5" ry="0.5" width="2.6" x="160.5" y="34.0"><title>2023-10-28</title></rect><rect fill="#EBEDF0" height="2.6" rx="0.5" ry="0.5" width="2.6" x="160.5" y="37.5"><title>2023-10-29</title></rect><rect fill="#EBEDF0" height="2.6" rx="0.5" ry="0.5" width="2.6" x="164.0" y="16.5"><title>2023-10-30</title></rect><rect fill="#EBEDF0" height="2.6" rx="0.5" ry="0.5" width="2.6" x="164.0" y="20.0"><title>2023-10-31</title></rect><rect fill="#EBEDF0" height="2.6" rx="0.5" ry="0.5" width="2.6" x="164.0" y="23.5"><title>2023-11-01</title></rect><rect fill="#EBEDF0" height="2.6" rx="0.5" ry="0.5" width="2.6" x="164.0" y="27.0"><title>2023-11-02</title></rect><rect fill="#EBEDF0" height="2.6" rx="0.5" ry="0.5" width="2.6" x="164.0" y="30.5"><title>2023-11-03</title></rect><rect fill="#EBEDF0" height="2.6" rx="0.5" ry="0.5" width="2.6" x="164.0" y="34.0"><title>2023-11-04</title></rect><rect fill="#EBEDF0" height="2.6" rx="0.5" ry="0.5" width="2.6" x="164.0" y="37.5"><title>2023-11-05</title></rect><rect fill="#EBEDF0" height="2.6" rx="0.5" ry="0.5" width="2.6" x="167.5" y="16.5"><title>2023-11-06</title></rect><rect fill="#EBEDF0" height="2.6" rx="0.5" ry="0.5" width="2.6" x="167.5" y="20.0"><title>2023-11-07</title></rect><rect fill="#EBEDF0" height="2.6" rx="0.5" ry="0.5" width="2.6" x="167.5" y="23.5"><title>2023-11-08</title></rect><rect fill="#EBEDF0" height="2.6" rx="0.5" ry="0.5" width="2.6" x="167.5" y="27.0"><title>2023-11-09</title></rect><rect fill="#EBEDF0" height="2.6" rx="0.5" ry="0.5" width="2.6" x="167.5" y="30.5"><title>2023-11-10</title></rect><rect fill="#EBEDF0" height="2.6" rx="0.5" ry="0.5" width="2.6" x="167.5" y="34.0"><title>2023-11-11</title></rect><rect fill="#EBEDF0" height="2.6" rx="0.5" ry="0.5" width="2.6" x="167.5" y="37.5"><title>2023-11-12</title></rect><rect fill="#EBEDF0" height="2.6" rx="0.5" ry="0.5" width="2.6" x="171.0" y="16.5"><title>2023-11-13</title></rect><rect fill="#EBEDF0" height="2.6" rx="0.5" ry="0.5" width="2.6" x="171.0" y="20.0"><title>2023-11-14</title></rect><rect fill="#EBEDF0" height="2.6" rx="0.5" ry="0.5" width="2.6" x="171.0" y="23.5"><title>2023-11-15</title></rect><rect fill="#EBEDF0" height="2.6" rx="0.5" ry="0.5" width="2.6" x="171.0" y="27.0"><title>2023-11-16</title></rect><rect fill="#EBEDF0" height="2.6" rx="0.5" ry="0.5" width="2.6" x="171.0" y="30.5"><title>2023-11-17</title></rect><rect fill="#EBEDF0" height="2.6" rx="0.5" ry="0.5" width="2.6" x="171.0" y="34.0"><title>2023-11-18</title></rect><rect fill="#EBEDF0" height="2.6" rx="0.5" ry="0.5" width="2.6" x="171.0" y="37.5"><title>2023-11-19</title></rect><rect fill="#EBEDF0" height="2.6" rx="0.5" ry="0.5" width="2.6" x="174.5" y="16.5"><title>2023-11-20</title></rect><rect fill="#EBEDF0" height="2.6" rx="0.5" ry="0.5" width="2.6" x="174.5" y="20.0"><title>2023-11-21</title></rect><rect fill="#EBEDF0" height="2.6" rx="0.5" ry="0.5" width="2.6" x="174.5" y="23.5"><title>2023-11-22</title></rect><rect fill="#EBEDF0" height="2.6" rx="0.5" ry="0.5" width="2.6" x="174.5" y="27.0"><title>2023-11-23</title></rect><rect fill="#EBEDF0" height="2.6" rx="0.5" ry="0.5" width="2.6" x="174.5" y="30.5"><title>2023-11-24</title></rect><rect fill="#EBEDF0" height="2.6" rx="0.5" ry="0.5" width="2.6" x="174.5" y="34.0"><title>2023-11-25</title></rect><rect fill="#EBEDF0" height="2.6" rx="0.5" ry="0.5" width="2.6" x="174.5" y="37.5"><title>2023-11-26</title></rect><rect fill="#EBEDF0" height="2.6" rx="0.5" ry="0.5" width="2.6" x="178.0" y="16.5"><title>2023-11-27</title></rect><rect fill="#EBEDF0" height="2.6" rx="0.5" ry="0.5" width="2.6" x="178.0" y="20.0"><title>2023-11-28</title></rect><rect fill="#EBEDF0" height="2.6" rx="0.5" ry="0.5" width="2.6" x="178.0" y="23.5"><title>2023-11-29</title></rect><rect fill="#EBEDF0" height="2.6" rx="0.5" ry="0.5" width="2.6" x="178.0" y="27.0"><title>2023-11-30</title></rect><rect fill="#EBEDF0" height="2.6" rx="0.5" ry="0.5" width="2.6" x="178.0" y="30.5"><title>2023-12-01</title></rect><rect fill="#EBEDF0" height="2.6" rx="0.5" ry="0.5" width="2.6" x="178.0" y="34.0"><title>2023-12-02</title></rect><rect fill="#EBEDF0" height="2.6" rx="0.5" ry="0.5" width="2.6" x="178.0" y="37.5"><title>2023-12-03</title></rect><rect fill="#EBEDF0" height="2.6" rx="0.5" ry="0.5" width="2.6" x="181.5" y="16.5"><title>2023-12-04</title></rect><rect fill="#EBEDF0" height="2.6" rx="0.5" ry="0.5" width="2.6" x="181.5" y="20.0"><title>2023-12-05</title></rect><rect fill="#EBEDF0" height="2.6" rx="0.5" ry="0.5" width="2.6" x="181.5" y="23.5"><title>2023-12-06</title></rect><rect fill="#EBEDF0" height="2.6" rx="0.5" ry="0.5" width="2.6" x="181.5" y="27.0"><title>2023-12-07</title></rect><rect fill="#EBEDF0" height="2.6" rx="0.5" ry="0.5" width="2.6" x="181.5" y="30.5"><title>2023-12-08</title></rect><rect fill="#EBEDF0" height="2.6" rx="0.5" ry="0.5" width="2.6" x="181.5" y="34.0"><title>2023-12-09</title></rect><rect fill="#EBEDF0" height="2.6" rx="0.5" ry="0.5" width="2.6" x="181.5" y="37.5"><title>2023-12-10</title></rect><rect fill="#EBEDF0" height="2.6" rx="0.5" ry="0.5" width="2.6" x="185.0" y="16.5"><title>2023-12-11</title></rect><rect fill="#EBEDF0" height="2.6" rx="0.5" ry="0.5" width="2.6" x="185.0" y="20.0"><title>2023-12-12</title></rect><rect fill="#EBEDF0" height="2.6" rx="0.5" ry="0.5" width="2.6" x="185.0" y="23.5"><title>2023-12-13</title></rect><rect fill="#EBEDF0" height="2.6" rx="0.5" ry="0.5" width="2.6" x="185.0" y="27.0"><title>2023-12-14</title></rect><rect fill="#EBEDF0" height="2.6" rx="0.5" ry="0.5" width="2.6" x="185.0" y="30.5"><title>2023-12-15</title></rect><rect fill="#EBEDF0" height="2.6" rx="0.5" ry="0.5" width="2.6" x="185.0" y="34.0"><title>2023-12-16</title></rect><rect fill="#EBEDF0" height="2.6" rx="0.5" ry="0.5" width="2.6" x="185.0" y="37.5"><title>2023-12-17</title></rect><rect fill="#EBEDF0" height="2.6" rx="0.5" ry="0.5" width="2.6" x="188.5" y="16.5"><title>2023-12-18</title></rect><rect fill="#EBEDF0" height="2.6" rx="0.5" ry="0.5" width="2.6" x="188.5" y="20.0"><title>2023-12-19</title></rect><rect fill="#EBEDF0" height="2.6" rx="0.5" ry="0.5" width="2.6" x="188.5" y="23.5"><title>2023-12-20</title></rect><rect fill="#EBEDF0" height="2.6" rx="0.5" ry="0.5" width="2.6" x="188.5" y="27.0"><title>2023-12-21</title></rect><rect fill="#EBEDF0" height="2.6" rx="0.5" ry="0.5" width="2.6" x="188.5" y="30.5"><title>2023-12-22</title></rect><rect fill="#EBEDF0" height="2.6" rx="0.5" ry="0.5" width="2.6" x="188.5" y="34.0"><title>2023-12-23</title></rect><rect fill="#EBEDF0" height="2.6" rx="0.5" ry="0.5" width="2.6" x="188.5" y="37.5"><title>2023-12-24</title></rect><rect fill="#EBEDF0" height="2.6" rx="0.5" ry="0.5" width="2.6" x="192.0" y="16.5"><title>2023-12-25</title></rect><rect fill="#EBEDF0" height="2.6" rx="0.5" ry="0.5" width="2.6" x="192.0" y="20.0"><title>2023-12-26</title></rect><rect fill="#EBEDF0" height="2.6" rx="0.5" ry="0.5" width="2.6" x="192.0" y="23.5"><title>2023-12-27</title></rect><rect fill="#EBEDF0" height="2.6" rx="0.5" ry="0.5" width="2.6" x="192.0" y="27.0"><title>2023-12-28</title></rect><rect fill="#EBEDF0" height="2.6" rx="0.5" ry="0.5" width="2.6" x="192.0" y="30.5"><title>2023-12-29</title></rect><rect fill="#EBEDF0" height="2.6" rx="0.5" ry="0.5" width="2.6" x="192.0" y="34.0"><title>2023-12-30</title></rect><rect fill="#EBEDF0" height="2.6" rx="0.5" ry="0.5" width="2.6" x="192.0" y="37.5"><title>2023-12-31</title></rect></svg>