<?xml version="1.0" encoding="utf-8" ?>
<svg baseProfile="full" height="42mm" version="1.1" viewBox="0,0,200,42" width="200mm" xmlns="http://www.w3.org/2000/svg" xmlns:ev="http://www.w3.org/2001/xml-events" xmlns:xlink="http://www.w3.org/1999/xlink"><defs /><rect fill="#ffffff" height="42" width="200" x="0" y="0" /><text alignment-baseline="hanging" fill="#333333" style="font-size:10.0px; font-family:Arial;" x="10" y="1">2023</text><text alignment-baseline="hanging" fill="#333333" style="font-size:4.125px; font-family:Arial;" x="175" y="6">180 hours</text><text fill="#333333" style="font-size:2.5px; font-family:Arial" x="10.0" y="15">Jan</text><text fill="#333333" style="font-size:2.5px; font-family:Arial" x="25.5" y="15">Feb</text><text fill="#333333" style="font-size:2.5px; font-family:Arial" x="41.0" y="15">Mar</text><text fill="#333333" style="font-size:2.5px; font-family:Arial" x="56.5" y="15">Apr</text><text fill="#333333" style="font-size:2.5px; font-family:Arial" x="72.0" y="15">May</text><text fill="#333333" style="font-size:2.5px; font-family:Arial" x="87.5" y="15">Jun</text><text fill="#333333" style="font-size:2.5px; font-family:Arial" x="103.0" y="15">Jul</text><text fill="#333333" style="font-size:2.5px; font-family:Arial" x="118.5" y="15">Aug</text><text fill="#333333" style="font-size:2.5px; font-family:Arial" x="134.0" y="15">Sep</text><text fill="#333333" style="font-size:2.5px; font-family:Arial" x="149.5" y="15">Oct</text><text fill="#333333" style="font-size:2.5px; font-family:Arial" x="165.0" y="15">Nov</text><text fill="#333333" style="font-size:2.5px; font-family:Arial" x="180.5" y="15">Dec</text><rect fill="#a9e6ab" height="2.6" rx="0.5" ry="0.5" width="2.6" x="10.0" y="16.5"><title>2022-12-26 7.3 mins</title></rect><rect fill="#a5e4a7" height="2.6" rx="0.5" ry="0.5" width="2.6" x="10.0" y="20.0"><title>2022-12-27 18.07 mins</title></rect><rect fill="#a0e1a2" height="2.6" rx="0.5" ry="0.5" width="2.6" x="10.0" y="23.5"><title>2022-12-28 30.82 mins</title></rect><rect fill="#65bd6a" height="2.6" rx="0.5" ry="0.5" width="2.6" x="10.0" y="27.0"><title>2022-12-29 38.72 mins</title></rect><rect fill="#a6e4a8" height="2.6" rx="0.5" ry="0.5" width="2.6" x="10.0" y="30.5"><title>2022-12-30 14.38 mins</title></rect><rect fill="#a9e6ab" height="2.6" rx="0.5" ry="0.5" width="2.6" x="10.0" y="34.0"><title>2022-12-31 7.7 mins</title></rect><rect fill="#549F57" height="2.6" rx="0.5" ry="0.5" width="2.6" x="10.0" y="37.5"><title>2023-01-01 65.22 mins</title></rect><rect fill="#65bd6a" height="2.6" rx="0.5" ry="0.5" width="2.6" x="13.5" y="16.5"><title>2023-01-02 38.42 mins</title></rect><rect fill="#549F57" height="2.6" rx="0.5" ry="0.5" width="2.6" x="13.5" y="20.0"><title>2023-01-03 65.45 mins</title></rect><rect fill="#a8e5aa" height="2.6" rx="0.5" ry="0.5" width="2.6" x="13.5" y="23.5"><title>2023-01-04 10.33 mins</title></rect><rect fill="#549F57" height="2.6" rx="0.5" ry="0.5" width="2.6" x="13.5" y="27.0"><title>2023-01-05 110.95 mins</title></rect><rect fill="#a9e6ab" height="2.6" rx="0.5" ry="0.5" width="2.6" x="13.5" y="30.5"><title>2023-01-06 7.82 mins</title></rect><rect fill="#a0e1a2" height="2.6" rx="0.5" ry="0.5" width="2.6" x="13.5" y="34.0"><title>2023-01-07 29.63 mins</title></rect><rect fill="#549F57" height="2.6" rx="0.5" ry="0.5" width="2.6" x="13.5" y="37.5"><title>2023-01-08 65.47 mins</title></rect><rect fill="#65bd69" height="2.6" rx="0.5" ry="0.5" width="2.6" x="17.0" y="16.5"><title>2023-01-09 43.45 mins</title></rect><rect fill="#549F57" height="2.6" rx="0.5" ry="0.5" width="2.6" x="17.0" y="20.0"><title>2023-01-10 115.53 mins</title></rect><rect fill="#a1e2a3" height="2.6" rx="0.5" ry="0.5" width="2.6" x="17.0" y="23.5"><title>2023-01-11 26.82 mins</title></rect><rect fill="#65bd6a" height="2.6" rx="0.5" ry="0.5" width="2.6" x="17.0" y="27.0"><title>2023-01-12 39.97 mins</title></rect><rect fill="#abe7ad" height="2.6" rx="0.5" ry="0.5" width="2.6" x="17.0" y="30.5"><title>2023-01-13 2.55 mins</title></rect><rect fill="#abe6ad" height="2.6" rx="0.5" ry="0.5" width="2.6" x="17.0" y="34.0"><title>2023-01-14 2.83 mins</title></rect><rect fill="#a1e2a4" height="2.6" rx="0.5" ry="0.5" width="2.6" x="17.0" y="37.5"><title>2023-01-15 26.47 mins</title></rect><rect fill="#a2e2a4" height="2.6" rx="0.5" ry="0.5" width="2.6" x="20.5" y="16.5"><title>2023-01-16 24.08 mins</title></rect><rect fill="#a6e4a8" height="2.6" rx="0.5" ry="0.5" width="2.6" x="20.5" y="20.0"><title>2023-01-17 15.23 mins</title></rect><rect fill="#549F57" height="2.6" rx="0.5" ry="0.5" width="2.6" x="20.5" y="23.5"><title>2023-01-18 160.13 mins</title></rect><rect fill="#549F57" height="2.6" rx="0.5" ry="0.5" width="2.6" x="20.5" y="27.0"><title>2023-01-19 119.27 mins</title></rect><rect fill="#ace7ae" height="2.6" rx="0.5" ry="0.5" width="2.6" x="20.5" y="30.5"><title>2023-01-20 0.1 mins</title></rect><rect fill="#EBEDF0" height="2.6" rx="0.5" ry="0.5" width="2.6" x="20.5" y="34.0"><title>2023-01-21</title></rect><rect fill="#a9e5ab" height="2.6" rx="0.5" ry="0.5" width="2.6" x="20.5" y="37.5"><title>2023-01-22 8.47 mins</title></rect><rect fill="#64bc69" height="2.6" rx="0.5" ry="0.5" width="2.6" x="24.0" y="16.5"><title>2023-01-23 51.68 mins</title></rect><rect fill="#64bc68" height="2.6" rx="0.5" ry="0.5" width="2.6" x="24.0" y="20.0"><title>2023-01-24 52.1 mins</title></rect><rect fill="#549F57" height="2.6" rx="0.5" ry="0.5" width="2.6" x="24.0" y="23.5"><title>2023-01-25 78.47 mins</title></rect><rect fill="#64bc69" height="2.6" rx="0.5" ry="0.5" width="2.6" x="24.0" y="27.0"><title>2023-01-26 48.1 mins</title></rect><rect fill="#549F57" height="2.6" rx="0.5" ry="0.5" width="2.6" x="24.0" y="30.5"><title>2023-01-27 73.4 mins</title></rect><rect fill="#a4e4a7" height="2.6" rx="0.5" ry="0.5" width="2.6" x="24.0" y="34.0"><title>2023-01-28 18.52 mins</title></rect><rect fill="#a8e5aa" height="2.6" rx="0.5" ry="0.5" width="2.6" x="24.0" y="37.5"><title>2023-01-29 10.52 mins</title></rect><rect fill="#64bc69" height="2.6" rx="0.5" ry="0.5" width="2.6" x="27.5" y="16.5"><title>2023-01-30 45.97 mins</title></rect><rect fill="#63bb68" height="2.6" rx="0.5" ry="0.5" width="2.6" x="27.5" y="20.0"><title>2023-01-31 54.95 mins</title></rect><rect fill="#66be6b" height="2.6" rx="0.5" ry="0.5" width="2.6" x="27.5" y="23.5"><title>2023-02-01 31.38 mins</title></rect><rect fill="#65bd6a" height="2.6" rx="0.5" ry="0.5" width="2.6" x="27.5" y="27.0"><title>2023-02-02 41.92 mins</title></rect><rect fill="#63bb68" height="2.6" rx="0.5" ry="0.5" width="2.6" x="27.5" y="30.5"><title>2023-02-03 59.37 mins</title></rect><rect fill="#66be6a" height="2.6" rx="0.5" ry="0.5" width="2.6" x="27.5" y="34.0"><title>2023-02-04 33.7 mins</title></rect><rect fill="#65bd6a" height="2.6" rx="0.5" ry="0.5" width="2.6" x="27.5" y="37.5"><title>2023-02-05 35.83 mins</title></rect><rect fill="#65bd6a" height="2.6" rx="0.5" ry="0.5" width="2.6" x="31.0" y="16.5"><title>2023-02-06 41.05 mins</title></rect><rect fill="#a5e4a7" height="2.6" rx="0.5" ry="0.5" width="2.6" x="31.0" y="20.0"><title>2023-02-07 17.5 mins</title></rect><rect fill="#549F57" height="2.6" rx="0.5" ry="0.5" width="2.6" x="31.0" y="23.5"><title>2023-02-08 66.05 mins</title></rect><rect fill="#a8e5aa" height="2.6" rx="0.5" ry="0.5" width="2.6" x="31.0" y="27.0"><title>2023-02-09 9.83 mins</title></rect><rect fill="#65bd6a" height="2.6" rx="0.5" ry="0.5" width="2.6" x="31.0" y="30.5"><title>2023-02-10 38.33 mins</title></rect><rect fill="#549F57" height="2.6" rx="0.5" ry="0.5" width="2.6" x="31.0" y="34.0"><title>2023-02-11 82.97 mins</title></rect><rect fill="#64bc69" height="2.6" rx="0.5" ry="0.5" width="2.6" x="31.0" y="37.5"><title>2023-02-12 47.77 mins</title></rect><rect fill="#ace7ae" height="2.6" rx="0.5" ry="0.5" width="2.6" x="34.5" y="16.5"><title>2023-02-13 0.83 mins</title></rect><rect fill="#64bc69" height="2.6" rx="0.5" ry="0.5" width="2.6" x="34.5" y="20.0"><title>2023-02-14 47.73 mins</title></rect><rect fill="#a3e3a5" height="2.6" rx="0.5" ry="0.5" width="2.6" x="34.5" y="23.5"><title>2023-02-15 22.83 mins</title></rect><rect fill="#549F57" height="2.6" rx="0.5" ry="0.5" width="2.6" x="34.5" y="27.0"><title>2023-02-16 73.2 mins</title></rect><rect fill="#aae6ac" height="2.6" rx="0.5" ry="0.5" width="2.6" x="34.5" y="30.5"><title>2023-02-17 4.27 mins</title></rect><rect fill="#a9e6ab" height="2.6" rx="0.5" ry="0.5" width="2.6" x="34.5" y="34.0"><title>2023-02-18 6.42 mins</title></rect><rect fill="#a9e6ab" height="2.6" rx="0.5" ry="0.5" width="2.6" x="34.5" y="37.5"><title>2023-02-19 6.85 mins</title></rect><rect fill="#a5e4a7" height="2.6" rx="0.5" ry="0.5" width="2.6" x="38.0" y="16.5"><title>2023-02-20 18.2 mins</title></rect><rect fill="#64bc69" height="2.6" rx="0.5" ry="0.5" width="2.6" x="38.0" y="20.0"><title>2023-02-21 46.58 mins</title></rect><rect fill="#ace7ae" height="2.6" rx="0.5" ry="0.5" width="2.6" x="38.0" y="23.5"><title>2023-02-22 0.53 mins</title></rect><rect fill="#63bb68" height="2.6" rx="0.5" ry="0.5" width="2.6" x="38.0" y="27.0"><title>2023-02-23 58.27 mins</title></rect><rect fill="#a7e5a9" height="2.6" rx="0.5" ry="0.5" width="2.6" x="38.0" y="30.5"><title>2023-02-24 12.18 mins</title></rect><rect fill="#65bd6a" height="2.6" rx="0.5" ry="0.5" width="2.6" x="38.0" y="34.0"><title>2023-02-25 36.7 mins</title></rect><rect fill="#549F57" height="2.6" rx="0.5" ry="0.5" width="2.6" x="38.0" y="37.5"><title>2023-02-26 133.25 mins</title></rect><rect fill="#549F57" height="2.6" rx="0.5" ry="0.5" width="2.6" x="41.5" y="16.5"><title>2023-02-27 71.62 mins</title></rect><rect fill="#65bd6a" height="2.6" rx="0.5" ry="0.5" width="2.6" x="41.5" y="20.0"><title>2023-02-28 35.88 mins</title></rect><rect fill="#63bb68" height="2.6" rx="0.5" ry="0.5" width="2.6" x="41.5" y="23.5"><title>2023-03-01 55.02 mins</title></rect><rect fill="#65bd6a" height="2.6" rx="0.5" ry="0.5" width="2.6" x="41.5" y="27.0"><title>2023-03-02 35.12 mins</title></rect><rect fill="#549F57" height="2.6" rx="0.5" ry="0.5" width="2.6" x="41.5" y="30.5"><title>2023-03-03 102.18 mins</title></rect><rect fill="#ace7ae" height="2.6" rx="0.5" ry="0.5" width="2.6" x="41.5" y="34.0"><title>2023-03-04 0.85 mins</title></rect><rect fill="#abe7ad" height="2.6" rx="0.5" ry="0.5" width="2.6" x="41.5" y="37.5"><title>2023-03-05 1.95 mins</title></rect><rect fill="#a8e5aa" height="2.6" rx="0.5" ry="0.5" width="2.6" x="45.0" y="16.5"><title>2023-03-06 9.4 mins</title></rect><rect fill="#a1e2a3" height="2.6" rx="0.5" ry="0.5" width="2.6" x="45.0" y="20.0"><title>2023-03-07 26.52 mins</title></rect><rect fill="#a0e1a2" height="2.6" rx="0.5" ry="0.5" width="2.6" x="45.0" y="23.5"><title>2023-03-08 29.38 mins</title></rect><rect fill="#64bc69" height="2.6" rx="0.5" ry="0.5" width="2.6" x="45.0" y="27.0"><title>2023-03-09 45.4 mins</title></rect><rect fill="#EBEDF0" height="2.6" rx="0.5" ry="0.5" width="2.6" x="45.0" y="30.5"><title>2023-03-10</title></rect><rect fill="#aae6ac" height="2.6" rx="0.5" ry="0.5" width="2.6" x="45.0" y="34.0"><title>2023-03-11 6.05 mins</title></rect><rect fill="#549F57" height="2.6" rx="0.5" ry="0.5" width="2.6" x="45.0" y="37.5"><title>2023-03-12 105.03 mins</title></rect><rect fill="#65bd6a" height="2.6" rx="0.5" ry="0.5" width="2.6" x="48.5" y="16.5"><title>2023-03-13 41.22 mins</title></rect><rect fill="#a1e2a3" height="2.6" rx="0.5" ry="0.5" width="2.6" x="48.5" y="20.0"><title>2023-03-14 27.83 mins</title></rect><rect fill="#549F57" height="2.6" rx="0.5" ry="0.5" width="2.6" x="48.5" y="23.5"><title>2023-03-15 71.87 mins</title></rect><rect fill="#64bc69" height="2.6" rx="0.5" ry="0.5" width="2.6" x="48.5" y="27.0"><title>2023-03-16 45.57 mins</title></rect><rect fill="#64bc69" height="2.6" rx="0.5" ry="0.5" width="2.6" x="48.5" y="30.5"><title>2023-03-17 50.67 mins</title></rect><rect fill="#ace7ae" height="2.6" rx="0.5" ry="0.5" width="2.6" x="48.5" y="34.0"><title>2023-03-18 0.52 mins</title></rect><rect fill="#a3e3a5" height="2.6" rx="0.5" ry="0.5" width="2.6" x="48.5" y="37.5"><title>2023-03-19 22.52 mins</title></rect><rect fill="#65bc69" height="2.6" rx="0.5" ry="0.5" width="2.6" x="52.0" y="16.5"><title>2023-03-20 44.2 mins</title></rect><rect fill="#63bb68" height="2.6" rx="0.5" ry="0.5" width="2.6" x="52.0" y="20.0"><title>2023-03-21 55.73 mins</title></rect><rect fill="#63bb68" height="2.6" rx="0.5" ry="0.5" width="2.6" x="52.0" y="23.5"><title>2023-03-22 56.62 mins</title></rect><rect fill="#64bb68" height="2.6" rx="0.5" ry="0.5" width="2.6" x="52.0" y="27.0"><title>2023-03-23 54.4 mins</title></rect><rect fill="#65bd6a" height="2.6" rx="0.5" ry="0.5" width="2.6" x="52.0" y="30.5"><title>2023-03-24 37.15 mins</title></rect><rect fill="#a8e5aa" height="2.6" rx="0.5" ry="0.5" width="2.6" x="52.0" y="34.0"><title>2023-03-25 10.13 mins</title></rect><rect fill="#abe7ad" height="2.6" rx="0.5" ry="0.5" width="2.6" x="52.0" y="37.5"><title>2023-03-26 2.62 mins</title></rect><rect fill="#ace7ae" height="2.6" rx="0.5" ry="0.5" width="2.6" x="55.5" y="16.5"><title>2023-03-27 1.05 mins</title></rect><rect fill="#abe7ad" height="2.6" rx="0.5" ry="0.5" width="2.6" x="55.5" y="20.0"><title>2023-03-28 1.35 mins</title></rect><rect fill="#EBEDF0" height="2.6" rx="0.5" ry="0.5" width="2.6" x="55.5" y="23.5"><title>2023-03-29</title></rect><rect fill="#ace7ae" height="2.6" rx="0.5" ry="0.5" width="2.6" x="55.5" y="27.0"><title>2023-03-30 0.22 mins</title></rect><rect fill="#ace7ae" height="2.6" rx="0.5" ry="0.5" width="2.6" x="55.5" y="30.5"><title>2023-03-31 0.07 mins</title></rect><rect fill="#64bb68" height="2.6" rx="0.5" ry="0.5" width="2.6" x="55.5" y="34.0"><title>2023-04-01 54.32 mins</title></rect><rect fill="#549F57" height="2.6" rx="0.5" ry="0.5" width="2.6" x="55.5" y="37.5"><title>2023-04-02 133.92 mins</title></rect><rect fill="#abe7ad" height="2.6" rx="0.5" ry="0.5" width="2.6" x="59.0" y="16.5"><title>2023-04-03 2.13 mins</title></rect><rect fill="#549F57" height="2.6" rx="0.5" ry="0.5" width="2.6" x="59.0" y="20.0"><title>2023-04-04 61.9 mins</title></rect><rect fill="#65bd6a" height="2.6" rx="0.5" ry="0.5" width="2.6" x="59.0" y="23.5"><title>2023-04-05 41.65 mins</title></rect><rect fill="#66be6b" height="2.6" rx="0.5" ry="0.5" width="2.6" x="59.0" y="27.0"><title>2023-04-06 32.02 mins</title></rect><rect fill="#63bb68" height="2.6" rx="0.5" ry="0.5" width="2.6" x="59.0" y="30.5"><title>2023-04-07 57.13 mins</title></rect><rect fill="#65bd6a" height="2.6" rx="0.5" ry="0.5" width="2.6" x="59.0" y="34.0"><title>2023-04-08 36.83 mins</title></rect><rect fill="#abe7ad" height="2.6" rx="0.5" ry="0.5" width="2.6" x="59.0" y="37.5"><title>2023-04-09 1.68 mins</title></rect><rect fill="#abe7ad" height="2.6" rx="0.5" ry="0.5" width="2.6" x="62.5" y="16.5"><title>2023-04-10 2.07 mins</title></rect><rect fill="#64bc69" height="2.6" rx="0.5" ry="0.5" width="2.6" x="62.5" y="20.0"><title>2023-04-11 49.63 mins</title></rect><rect fill="#63bb68" height="2.6" rx="0.5" ry="0.5" width="2.6" x="62.5" y="23.5"><title>2023-04-12 61.05 mins</title></rect><rect fill="#65bd6a" height="2.6" rx="0.5" ry="0.5" width="2.6" x="62.5" y="27.0"><title>2023-04-13 36.97 mins</title></rect><rect fill="#a2e2a4" height="2.6" rx="0.5" ry="0.5" width="2.6" x="62.5" y="30.5"><title>2023-04-14 25.83 mins</title></rect><rect fill="#549F57" height="2.6" rx="0.5" ry="0.5" width="2.6" x="62.5" y="34.0"><title>2023-04-15 85.03 mins</title></rect><rect fill="#ace7ae" height="2.6" rx="0.5" ry="0.5" width="2.6" x="62.5" y="37.5"><title>2023-04-16 0.48 mins</title></rect><rect fill="#66be6a" height="2.6" rx="0.5" ry="0.5" width="2.6" x="66.0" y="16.5"><title>2023-04-17 33.68 mins</title></rect><rect fill="#64bc69" height="2.6" rx="0.5" ry="0.5" width="2.6" x="66.0" y="20.0"><title>2023-04-18 51.03 mins</title></rect><rect fill="#549F57" height="2.6" rx="0.5" ry="0.5" width="2.6" x="66.0" y="23.5"><title>2023-04-19 66.53 mins</title></rect><rect fill="#549F57" height="2.6" rx="0.5" ry="0.5" width="2.6" x="66.0" y="27.0"><title>2023-04-20 108.05 mins</title></rect><rect fill="#549F57" height="2.6" rx="0.5" ry="0.5" width="2.6" x="66.0" y="30.5"><title>2023-04-21 72.23 mins</title></rect><rect fill="#63bb68" height="2.6" rx="0.5" ry="0.5" width="2.6" x="66.0" y="34.0"><title>2023-04-22 58.33 mins</title></rect><rect fill="#65bd6a" height="2.6" rx="0.5" ry="0.5" width="2.6" x="66.0" y="37.5"><title>2023-04-23 38.05 mins</title></rect><rect fill="#549F57" height="2.6" rx="0.5" ry="0.5" width="2.6" x="69.5" y="16.5"><title>2023-04-24 79.75 mins</title></rect><rect fill="#a5e4a7" height="2.6" rx="0.5" ry="0.5" width="2.6" x="69.5" y="20.0"><title>2023-04-25 17.18 mins</title></rect><rect fill="#66be6b" height="2.6" rx="0.5" ry="0.5" width="2.6" x="69.5" y="23.5"><title>2023-04-26 32.05 mins</title></rect><rect fill="#abe7ad" height="2.6" rx="0.5" ry="0.5" width="2.6" x="69.5" y="27.0"><title>2023-04-27 1.53 mins</title></rect><rect fill="#aae6ac" height="2.6" rx="0.5" ry="0.5" width="2.6" x="69.5" y="30.5"><title>2023-04-28 3.83 mins</title></rect><rect fill="#abe7ad" height="2.6" rx="0.5" ry="0.5" width="2.6" x="69.5" y="34.0"><title>2023-04-29 2.47 mins</title></rect><rect fill="#abe7ad" height="2.6" rx="0.5" ry="0.5" width="2.6" x="69.5" y="37.5"><title>2023-04-30 1.6 mins</title></rect><rect fill="#abe7ad" height="2.6" rx="0.5" ry="0.5" width="2.6" x="73.0" y="16.5"><title>2023-05-01 2.03 mins</title></rect><rect fill="#ace7ae" height="2.6" rx="0.5" ry="0.5" width="2.6" x="73.0" y="20.0"><title>2023-05-02 0.98 mins</title></rect><rect fill="#a8e5aa" height="2.6" rx="0.5" ry="0.5" width="2.6" x="73.0" y="23.5"><title>2023-05-03 10.7 mins</title></rect><rect fill="#549F57" height="2.6" rx="0.5" ry="0.5" width="2.6" x="73.0" y="27.0"><title>2023-05-04 78.1 mins</title></rect><rect fill="#549F57" height="2.6" rx="0.5" ry="0.5" width="2.6" x="73.0" y="30.5"><title>2023-05-05 62.15 mins</title></rect><rect fill="#aae6ac" height="2.6" rx="0.5" ry="0.5" width="2.6" x="73.0" y="34.0"><title>2023-05-06 5.78 mins</title></rect><rect fill="#aae6ac" height="2.6" rx="0.5" ry="0.5" width="2.6" x="73.0" y="37.5"><title>2023-05-07 5.85 mins</title></rect><rect fill="#549F57" height="2.6" rx="0.5" ry="0.5" width="2.6" x="76.5" y="16.5"><title>2023-05-08 70.25 mins</title></rect><rect fill="#66be6a" height="2.6" rx="0.5" ry="0.5" width="2.6" x="76.5" y="20.0"><title>2023-05-09 33.17 mins</title></rect><rect fill="#549F57" height="2.6" rx="0.5" ry="0.5" width="2.6" x="76.5" y="23.5"><title>2023-05-10 103.68 mins</title></rect><rect fill="#549F57" height="2.6" rx="0.5" ry="0.5" width="2.6" x="76.5" y="27.0"><title>2023-05-11 84.4 mins</title></rect><rect fill="#a2e2a4" height="2.6" rx="0.5" ry="0.5" width="2.6" x="76.5" y="30.5"><title>2023-05-12 25.83 mins</title></rect><rect fill="#ace7ae" height="2.6" rx="0.5" ry="0.5" width="2.6" x="76.5" y="34.0"><title>2023-05-13 0.52 mins</title></rect><rect fill="#aae6ad" height="2.6" rx="0.5" ry="0.5" width="2.6" x="76.5" y="37.5"><title>2023-05-14 3.65 mins</title></rect><rect fill="#549F57" height="2.6" rx="0.5" ry="0.5" width="2.6" x="80.0" y="16.5"><title>2023-05-15 115.95 mins</title></rect><rect fill="#a9e6ab" height="2.6" rx="0.5" ry="0.5" width="2.6" x="80.0" y="20.0"><title>2023-05-16 6.48 mins</title></rect><rect fill="#63bb68" height="2.6" rx="0.5" ry="0.5" width="2.6" x="80.0" y="23.5"><title>2023-05-17 57.83 mins</title></rect><rect fill="#66be6a" height="2.6" rx="0.5" ry="0.5" width="2.6" x="80.0" y="27.0"><title>2023-05-18 33.47 mins</title></rect><rect fill="#64bc69" height="2.6" rx="0.5" ry="0.5" width="2.6" x="80.0" y="30.5"><title>2023-05-19 51.05 mins</title></rect><rect fill="#a3e3a5" height="2.6" rx="0.5" ry="0.5" width="2.6" x="80.0" y="34.0"><title>2023-05-20 22.85 mins</title></rect><rect fill="#a6e4a8" height="2.6" rx="0.5" ry="0.5" width="2.6" x="80.0" y="37.5"><title>2023-05-21 15.43 mins</title></rect><rect fill="#a7e5a9" height="2.6" rx="0.5" ry="0.5" width="2.6" x="83.5" y="16.5"><title>2023-05-22 11.3 mins</title></rect><rect fill="#63bb68" height="2.6" rx="0.5" ry="0.5" width="2.6" x="83.5" y="20.0"><title>2023-05-23 56.37 mins</title></rect><rect fill="#65bd6a" height="2.6" rx="0.5" ry="0.5" width="2.6" x="83.5" y="23.5"><title>2023-05-24 40.57 mins</title></rect><rect fill="#a5e4a7" height="2.6" rx="0.5" ry="0.5" width="2.6" x="83.5" y="27.0"><title>2023-05-25 17.17 mins</title></rect><rect fill="#549F57" height="2.6" rx="0.5" ry="0.5" width="2.6" x="83.5" y="30.5"><title>2023-05-26 76.2 mins</title></rect><rect fill="#549F57" height="2.6" rx="0.5" ry="0.5" width="2.6" x="83.5" y="34.0"><title>2023-05-27 109.23 mins</title></rect><rect fill="#64bc69" height="2.6" rx="0.5" ry="0.5" width="2.6" x="83.5" y="37.5"><title>2023-05-28 48.37 mins</title></rect><rect fill="#a8e5aa" height="2.6" rx="0.5" ry="0.5" width="2.6" x="87.0" y="16.5"><title>2023-05-29 10.67 mins</title></rect><rect fill="#549F57" height="2.6" rx="0.5" ry="0.5" width="2.6" x="87.0" y="20.0"><title>2023-05-30 80.95 mins</title></rect><rect fill="#aae6ac" height="2.6" rx="0.5" ry="0.5" width="2.6" x="87.0" y="23.5"><title>2023-05-31 4.6 mins</title></rect><rect fill="#549F57" height="2.6" rx="0.5" ry="0.5" width="2.6" x="87.0" y="27.0"><title>2023-06-01 66.0 mins</title></rect><rect fill="#a1e2a3" height="2.6" rx="0.5" ry="0.5" width="2.6" x="87.0" y="30.5"><title>2023-06-02 26.88 mins</title></rect><rect fill="#64bc69" height="2.6" rx="0.5" ry="0.5" width="2.6" x="87.0" y="34.0"><title>2023-06-03 48.53 mins</title></rect><rect fill="#a2e3a5" height="2.6" rx="0.5" ry="0.5" width="2.6" x="87.0" y="37.5"><title>2023-06-04 23.43 mins</title></rect><rect fill="#a8e5aa" height="2.6" rx="0.5" ry="0.5" width="2.6" x="90.5" y="16.5"><title>2023-06-05 10.18 mins</title></rect><rect fill="#66be6b" height="2.6" rx="0.5" ry="0.5" width="2.6" x="90.5" y="20.0"><title>2023-06-06 32.15 mins</title></rect><rect fill="#ace7ae" height="2.6" rx="0.5" ry="0.5" width="2.6" x="90.5" y="23.5"><title>2023-06-07 0.9 mins</title></rect><rect fill="#abe7ae" height="2.6" rx="0.5" ry="0.5" width="2.6" x="90.5" y="27.0"><title>2023-06-08 1.22 mins</title></rect><rect fill="#549F57" height="2.6" rx="0.5" ry="0.5" width="2.6" x="90.5" y="30.5"><title>2023-06-09 67.95 mins</title></rect><rect fill="#64bb68" height="2.6" rx="0.5" ry="0.5" width="2.6" x="90.5" y="34.0"><title>2023-06-10 54.5 mins</title></rect><rect fill="#549F57" height="2.6" rx="0.5" ry="0.5" width="2.6" x="90.5" y="37.5"><title>2023-06-11 146.82 mins</title></rect><rect fill="#64bc69" height="2.6" rx="0.5" ry="0.5" width="2.6" x="94.0" y="16.5"><title>2023-06-12 50.38 mins</title></rect><rect fill="#64bc69" height="2.6" rx="0.5" ry="0.5" width="2.6" x="94.0" y="20.0"><title>2023-06-13 50.0 mins</title></rect><rect fill="#63bb68" height="2.6" rx="0.5" ry="0.5" width="2.6" x="94.0" y="23.5"><title>2023-06-14 58.28 mins</title></rect><rect fill="#a7e5a9" height="2.6" rx="0.5" ry="0.5" width="2.6" x="94.0" y="27.0"><title>2023-06-15 12.3 mins</title></rect><rect fill="#549F57" height="2.6" rx="0.5" ry="0.5" width="2.6" x="94.0" y="30.5"><title>2023-06-16 78.45 mins</title></rect><rect fill="#63bb68" height="2.6" rx="0.5" ry="0.5" width="2.6" x="94.0" y="34.0"><title>2023-06-17 55.85 mins</title></rect><rect fill="#549F57" height="2.6" rx="0.5" ry="0.5" width="2.6" x="94.0" y="37.5"><title>2023-06-18 90.75 mins</title></rect><rect fill="#549F57" height="2.6" rx="0.5" ry="0.5" width="2.6" x="97.5" y="16.5"><title>2023-06-19 63.23 mins</title></rect><rect fill="#549F57" height="2.6" rx="0.5" ry="0.5" width="2.6" x="97.5" y="20.0"><title>2023-06-20 80.85 mins</title></rect><rect fill="#549F57" height="2.6" rx="0.5" ry="0.5" width="2.6" x="97.5" y="23.5"><title>2023-06-21 97.47 mins</title></rect><rect fill="#549F57" height="2.6" rx="0.5" ry="0.5" width="2.6" x="97.5" y="27.0"><title>2023-06-22 158.13 mins</title></rect><rect fill="#a4e3a6" height="2.6" rx="0.5" ry="0.5" width="2.6" x="97.5" y="30.5"><title>2023-06-23 19.85 mins</title></rect><rect fill="#65bd6a" height="2.6" rx="0.5" ry="0.5" width="2.6" x="97.5" y="34.0"><title>2023-06-24 37.6 mins</title></rect><rect fill="#aae6ac" height="2.6" rx="0.5" ry="0.5" width="2.6" x="97.5" y="37.5"><title>2023-06-25 6.03 mins</title></rect><rect fill="#a8e5aa" height="2.6" rx="0.5" ry="0.5" width="2.6" x="101.0" y="16.5"><title>2023-06-26 10.17 mins</title></rect><rect fill="#a1e2a3" height="2.6" rx="0.5" ry="0.5" width="2.6" x="101.0" y="20.0"><title>2023-06-27 27.5 mins</title></rect><rect fill="#a9e6ab" height="2.6" rx="0.5" ry="0.5" width="2.6" x="101.0" y="23.5"><title>2023-06-28 7.22 mins</title></rect><rect fill="#abe6ad" height="2.6" rx="0.5" ry="0.5" width="2.6" x="101.0" y="27.0"><title>2023-06-29 3.37 mins</title></rect><rect fill="#65bd69" height="2.6" rx="0.5" ry="0.5" width="2.6" x="101.0" y="30.5"><title>2023-06-30 43.0 mins</title></rect><rect fill="#63bb68" height="2.6" rx="0.5" ry="0.5" width="2.6" x="101.0" y="34.0"><title>2023-07-01 59.88 mins</title></rect><rect fill="#65bd6a" height="2.6" rx="0.5" ry="0.5" width="2.6" x="101.0" y="37.5"><title>2023-07-02 41.2 mins</title></rect><rect fill="#549F57" height="2.6" rx="0.5" ry="0.5" width="2.6" x="104.5" y="16.5"><title>2023-07-03 65.72 mins</title></rect><rect fill="#65bd6a" height="2.6" rx="0.5" ry="0.5" width="2.6" x="104.5" y="20.0"><title>2023-07-04 35.07 mins</title></rect><rect fill="#549F57" height="2.6" rx="0.5" ry="0.5" width="2.6" x="104.5" y="23.5"><title>2023-07-05 72.75 mins</title></rect><rect fill="#a1e2a3" height="2.6" rx="0.5" ry="0.5" width="2.6" x="104.5" y="27.0"><title>2023-07-06 27.07 mins</title></rect><rect fill="#a9e6ab" height="2.6" rx="0.5" ry="0.5" width="2.6" x="104.5" y="30.5"><title>2023-07-07 7.32 mins</title></rect><rect fill="#a1e2a3" height="2.6" rx="0.5" ry="0.5" width="2.6" x="104.5" y="34.0"><title>2023-07-08 26.85 mins</title></rect><rect fill="#a9e6ab" height="2.6" rx="0.5" ry="0.5" width="2.6" x="104.5" y="37.5"><title>2023-07-09 7.2 mins</title></rect><rect fill="#66be6a" height="2.6" rx="0.5" ry="0.5" width="2.6" x="108.0" y="16.5"><title>2023-07-10 33.77 mins</title></rect><rect fill="#a1e2a3" height="2.6" rx="0.5" ry="0.5" width="2.6" x="108.0" y="20.0"><title>2023-07-11 27.57 mins</title></rect><rect fill="#549F57" height="2.6" rx="0.5" ry="0.5" width="2.6" x="108.0" y="23.5"><title>2023-07-12 95.9 mins</title></rect><rect fill="#549F57" height="2.6" rx="0.5" ry="0.5" width="2.6" x="108.0" y="27.0"><title>2023-07-13 73.05 mins</title></rect><rect fill="#65bd6a" height="2.6" rx="0.5" ry="0.5" width="2.6" x="108.0" y="30.5"><title>2023-07-14 40.92 mins</title></rect><rect fill="#aae6ac" height="2.6" rx="0.5" ry="0.5" width="2.6" x="108.0" y="34.0"><title>2023-07-15 5.35 mins</title></rect><rect fill="#65bd6a" height="2.6" rx="0.5" ry="0.5" width="2.6" x="108.0" y="37.5"><title>2023-07-16 35.22 mins</title></rect><rect fill="#549F57" height="2.6" rx="0.5" ry="0.5" width="2.6" x="111.5" y="16.5"><title>2023-07-17 106.42 mins</title></rect><rect fill="#64bb68" height="2.6" rx="0.5" ry="0.5" width="2.6" x="111.5" y="20.0"><title>2023-07-18 54.08 mins</title></rect><rect fill="#a3e3a5" height="2.6" rx="0.5" ry="0.5" width="2.6" x="111.5" y="23.5"><title>2023-07-19 23.15 mins</title></rect><rect fill="#549F57" height="2.6" rx="0.5" ry="0.5" width="2.6" x="111.5" y="27.0"><title>2023-07-20 82.0 mins</title></rect><rect fill="#64bc69" height="2.6" rx="0.5" ry="0.5" width="2.6" x="111.5" y="30.5"><title>2023-07-21 45.62 mins</title></rect><rect fill="#64bc68" height="2.6" rx="0.5" ry="0.5" width="2.6" x="111.5" y="34.0"><title>2023-07-22 52.97 mins</title></rect><rect fill="#a5e4a7" height="2.6" rx="0.5" ry="0.5" width="2.6" x="111.5" y="37.5"><title>2023-07-23 16.92 mins</title></rect><rect fill="#66be6b" height="2.6" rx="0.5" ry="0.5" width="2.6" x="115.0" y="16.5"><title>2023-07-24 32.03 mins</title></rect><rect fill="#66be6b" height="2.6" rx="0.5" ry="0.5" width="2.6" x="115.0" y="20.0"><title>2023-07-25 32.38 mins</title></rect><rect fill="#549F57" height="2.6" rx="0.5" ry="0.5" width="2.6" x="115.0" y="23.5"><title>2023-07-26 63.23 mins</title></rect><rect fill="#549F57" height="2.6" rx="0.5" ry="0.5" width="2.6" x="115.0" y="27.0"><title>2023-07-27 73.02 mins</title></rect><rect fill="#63bb68" height="2.6" rx="0.5" ry="0.5" width="2.6" x="115.0" y="30.5"><title>2023-07-28 60.9 mins</title></rect><rect fill="#a4e3a6" height="2.6" rx="0.5" ry="0.5" width="2.6" x="115.0" y="34.0"><title>2023-07-29 20.03 mins</title></rect><rect fill="#549F57" height="2.6" rx="0.5" ry="0.5" width="2.6" x="115.0" y="37.5"><title>2023-07-30 70.73 mins</title></rect><rect fill="#549F57" height="2.6" rx="0.5" ry="0.5" width="2.6" x="118.5" y="16.5"><title>2023-07-31 104.15 mins</title></rect><rect fill="#549F57" height="2.6" rx="0.5" ry="0.5" width="2.6" x="118.5" y="20.0"><title>2023-08-01 115.25 mins</title></rect><rect fill="#a5e4a7" height="2.6" rx="0.5" ry="0.5" width="2.6" x="118.5" y="23.5"><title>2023-08-02 18.0 mins</title></rect><rect fill="#63bb68" height="2.6" rx="0.5" ry="0.5" width="2.6" x="118.5" y="27.0"><title>2023-08-03 59.13 mins</title></rect><rect fill="#aae6ac" height="2.6" rx="0.5" ry="0.5" width="2.6" x="118.5" y="30.5"><title>2023-08-04 4.02 mins</title></rect><rect fill="#a3e3a5" height="2.6" rx="0.5" ry="0.5" width="2.6" x="118.5" y="34.0"><title>2023-08-05 22.23 mins</title></rect><rect fill="#a9e6ab" height="2.6" rx="0.5" ry="0.5" width="2.6" x="118.5" y="37.5"><title>2023-08-06 7.62 mins</title></rect><rect fill="#a5e4a8" height="2.6" rx="0.5" ry="0.5" width="2.6" x="122.0" y="16.5"><title>2023-08-07 16.22 mins</title></rect><rect fill="#abe7ad" height="2.6" rx="0.5" ry="0.5" width="2.6" x="122.0" y="20.0"><title>2023-08-08 2.0 mins</title></rect><rect fill="#abe6ad" height="2.6" rx="0.5" ry="0.5" width="2.6" x="122.0" y="23.5"><title>2023-08-09 2.75 mins</title></rect><rect fill="#aae6ac" height="2.6" rx="0.5" ry="0.5" width="2.6" x="122.0" y="27.0"><title>2023-08-10 4.13 mins</title></rect><rect fill="#ace7ae" height="2.6" rx="0.5" ry="0.5" width="2.6" x="122.0" y="30.5"><title>2023-08-11 0.18 mins</title></rect><rect fill="#65bc69" height="2.6" rx="0.5" ry="0.5" width="2.6" x="122.0" y="34.0"><title>2023-08-12 43.88 mins</title></rect><rect fill="#65bd6a" height="2.6" rx="0.5" ry="0.5" width="2.6" x="122.0" y="37.5"><title>2023-08-13 34.78 mins</title></rect><rect fill="#549F57" height="2.6" rx="0.5" ry="0.5" width="2.6" x="125.5" y="16.5"><title>2023-08-14 64.42 mins</title></rect><rect fill="#a0e2a3" height="2.6" rx="0.5" ry="0.5" width="2.6" x="125.5" y="20.0"><title>2023-08-15 28.78 mins</title></rect><rect fill="#65bd69" height="2.6" rx="0.5" ry="0.5" width="2.6" x="125.5" y="23.5"><title>2023-08-16 43.38 mins</title></rect><rect fill="#64bb68" height="2.6" rx="0.5" ry="0.5" width="2.6" x="125.5" y="27.0"><title>2023-08-17 54.68 mins</title></rect><rect fill="#a2e2a4" height="2.6" rx="0.5" ry="0.5" width="2.6" x="125.5" y="30.5"><title>2023-08-18 25.1 mins</title></rect><rect fill="#a5e4a7" height="2.6" rx="0.5" ry="0.5" width="2.6" x="125.5" y="34.0"><title>2023-08-19 16.68 mins</title></rect><rect fill="#549F57" height="2.6" rx="0.5" ry="0.5" width="2.6" x="125.5" y="37.5"><title>2023-08-20 96.83 mins</title></rect><rect fill="#a3e3a5" height="2.6" rx="0.5" ry="0.5" width="2.6" x="129.0" y="16.5"><title>2023-08-21 22.92 mins</title></rect><rect fill="#549F57" height="2.6" rx="0.5" ry="0.5" width="2.6" x="129.0" y="20.0"><title>2023-08-22 149.45 mins</title></rect><rect fill="#549F57" height="2.6" rx="0.5" ry="0.5" width="2.6" x="129.0" y="23.5"><title>2023-08-23 94.98 mins</title></rect><rect fill="#549F57" height="2.6" rx="0.5" ry="0.5" width="2.6" x="129.0" y="27.0"><title>2023-08-24 89.05 mins</title></rect><rect fill="#64bc69" height="2.6" rx="0.5" ry="0.5" width="2.6" x="129.0" y="30.5"><title>2023-08-25 50.32 mins</title></rect><rect fill="#65bd6a" height="2.6" rx="0.5" ry="0.5" width="2.6" x="129.0" y="34.0"><title>2023-08-26 41.32 mins</title></rect><rect fill="#a6e4a9" height="2.6" rx="0.5" ry="0.5" width="2.6" x="129.0" y="37.5"><title>2023-08-27 13.52 mins</title></rect><rect fill="#a5e4a8" height="2.6" rx="0.5" ry="0.5" width="2.6" x="132.5" y="16.5"><title>2023-08-28 15.98 mins</title></rect><rect fill="#abe7ad" height="2.6" rx="0.5" ry="0.5" width="2.6" x="132.5" y="20.0"><title>2023-08-29 2.5 mins</title></rect><rect fill="#a6e4a8" height="2.6" rx="0.5" ry="0.5" width="2.6" x="132.5" y="23.5"><title>2023-08-30 15.6 mins</title></rect><rect fill="#63bb68" height="2.6" rx="0.5" ry="0.5" width="2.6" x="132.5" y="27.0"><title>2023-08-31 58.08 mins</title></rect><rect fill="#65bc69" height="2.6" rx="0.5" ry="0.5" width="2.6" x="132.5" y="30.5"><title>2023-09-01 44.52 mins</title></rect><rect fill="#64bc69" height="2.6" rx="0.5" ry="0.5" width="2.6" x="132.5" y="34.0"><title>2023-09-02 49.13 mins</title></rect><rect fill="#a7e5a9" height="2.6" rx="0.5" ry="0.5" width="2.6" x="132.5" y="37.5"><title>2023-09-03 12.75 mins</title></rect><rect fill="#64bc69" height="2.6" rx="0.5" ry="0.5" width="2.6" x="136.0" y="16.5"><title>2023-09-04 45.53 mins</title></rect><rect fill="#549F57" height="2.6" rx="0.5" ry="0.5" width="2.6" x="136.0" y="20.0"><title>2023-09-05 90.78 mins</title></rect><rect fill="#549F57" height="2.6" rx="0.5" ry="0.5" width="2.6" x="136.0" y="23.5"><title>2023-09-06 101.88 mins</title></rect><rect fill="#549F57" height="2.6" rx="0.5" ry="0.5" width="2.6" x="136.0" y="27.0"><title>2023-09-07 62.3 mins</title></rect><rect fill="#a1e2a4" height="2.6" rx="0.5" ry="0.5" width="2.6" x="136.0" y="30.5"><title>2023-09-08 26.32 mins</title></rect><rect fill="#a9e6ab" height="2.6" rx="0.5" ry="0.5" width="2.6" x="136.0" y="34.0"><title>2023-09-09 6.33 mins</title></rect><rect fill="#a0e1a2" height="2.6" rx="0.5" ry="0.5" width="2.6" x="136.0" y="37.5"><title>2023-09-10 30.87 mins</title></rect><rect fill="#aae6ac" height="2.6" rx="0.5" ry="0.5" width="2.6" x="139.5" y="16.5"><title>2023-09-11 4.58 mins</title></rect><rect fill="#a7e5a9" height="2.6" rx="0.5" ry="0.5" width="2.6" x="139.5" y="20.0"><title>2023-09-12 12.4 mins</title></rect><rect fill="#a6e4a8" height="2.6" rx="0.5" ry="0.5" width="2.6" x="139.5" y="23.5"><title>2023-09-13 13.93 mins</title></rect><rect fill="#ace7ae" height="2.6" rx="0.5" ry="0.5" width="2.6" x="139.5" y="27.0"><title>2023-09-14 0.02 mins</title></rect><rect fill="#ace7ae" height="2.6" rx="0.5" ry="0.5" width="2.6" x="139.5" y="30.5"><title>2023-09-15 0.72 mins</title></rect><rect fill="#abe7ad" height="2.6" rx="0.5" ry="0.5" width="2.6" x="139.5" y="34.0"><title>2023-09-16 2.43 mins</title></rect><rect fill="#a9e6ab" height="2.6" rx="0.5" ry="0.5" width="2.6" x="139.5" y="37.5"><title>2023-09-17 6.9 mins</title></rect><rect fill="#65bc69" height="2.6" rx="0.5" ry="0.5" width="2.6" x="143.0" y="16.5"><title>2023-09-18 44.27 mins</title></rect><rect fill="#66be6a" height="2.6" rx="0.5" ry="0.5" width="2.6" x="143.0" y="20.0"><title>2023-09-19 33.48 mins</title></rect><rect fill="#549F57" height="2.6" rx="0.5" ry="0.5" width="2.6" x="143.0" y="23.5"><title>2023-09-20 63.58 mins</title></rect><rect fill="#a3e3a5" height="2.6" rx="0.5" ry="0.5" width="2.6" x="143.0" y="27.0"><title>2023-09-21 22.35 mins</title></rect><rect fill="#a6e4a9" height="2.6" rx="0.5" ry="0.5" width="2.6" x="143.0" y="30.5"><title>2023-09-22 13.55 mins</title></rect><rect fill="#66be6b" height="2.6" rx="0.5" ry="0.5" width="2.6" x="143.0" y="34.0"><title>2023-09-23 32.23 mins</title></rect><rect fill="#ace7ae" height="2.6" rx="0.5" ry="0.5" width="2.6" x="143.0" y="37.5"><title>2023-09-24 0.35 mins</title></rect><rect fill="#ace7ae" height="2.6" rx="0.5" ry="0.5" width="2.6" x="146.5" y="16.5"><title>2023-09-25 0.38 mins</title></rect><rect fill="#EBEDF0" height="2.6" rx="0.5" ry="0.5" width="2.6" x="146.5" y="20.0"><title>2023-09-26</title></rect><rect fill="#a0e1a2" height="2.6" rx="0.5" ry="0.5" width="2.6" x="146.5" y="23.5"><title>2023-09-27 29.27 mins</title></rect><rect fill="#abe7ae" height="2.6" rx="0.5" ry="0.5" width="2.6" x="146.5" y="27.0"><title>2023-09-28 1.22 mins</title></rect><rect fill="#EBEDF0" height="2.6" rx="0.5" ry="0.5" width="2.6" x="146.5" y="30.5"><title>2023-09-29</title></rect><rect fill="#EBEDF0" height="2.6" rx="0.5" ry="0.5" width="2.6" x="146.5" y="34.0"><title>2023-09-30</title></rect><rect fill="#EBEDF0" height="2.6" rx="0.5" ry="0.5" width="2.6" x="146.5" y="37.5"><title>2023-10-01</title></rect><rect fill="#EBEDF0" height="2.6" rx="0.5" ry="0.5" width="2.6" x="150.0" y="16.5"><title>2023-10-02</title></rect><rect fill="#EBEDF0" height="2.6" rx="0.5" ry="0.5" width="2.6" x="150.0" y="20.0"><title>2023-10-03</title></rect><rect fill="#EBEDF0" height="2.6" rx="0.5" ry="0.5" width="2.6" x="150.0" y="23.5"><title>2023-10-04</title></rect><rect fill="#EBEDF0" height="2.6" rx="0.5" ry="0.5" width="2.6" x="150.0" y="27.0"><title>2023-10-05</title></rect><rect fill="#EBEDF0" height="2.6" rx="0.5" ry="0.5" width="2.6" x="150.0" y="30.5"><title>2023-10-06</title></rect><rect fill="#EBEDF0" height="2.6" rx="0.5" ry="0.5" width="2.6" x="150.0" y="34.0"><title>2023-10-07</title></rect><rect fill="#EBEDF0" height="2.6" rx="0.5" ry="0.5" width="2.6" x="150.0" y="37.5"><title>2023-10-08</title></rect><rect fill="#EBEDF0" height="2.6" rx="0.5" ry="0.5" width="2.6" x="153.5" y="16.5"><title>2023-10-09</title></rect><rect fill="#EBEDF0" height="2.6" rx="0.5" ry="0.5" width="2.6" x="153.5" y="20.0"><title>2023-10-10</title></rect><rect fill="#EBEDF0" height="2.6" rx="0.5" ry="0.5" width="2.6" x="153.5" y="23.5"><title>2023-10-11</title></rect><rect fill="#EBEDF0" height="2.6" rx="0.5" ry="0.5" width="2.6" x="153.5" y="27.0"><title>2023-10-12</title></rect><rect fill="#EBEDF0" height="2.6" rx="0.5" ry="0.5" width="2.6" x="153.5" y="30.5"><title>2023-10-13</title></rect><rect fill="#EBEDF0" height="2.6" rx="0.5" ry="0.5" width="2.6" x="153.5" y="34.0"><title>2023-10-14</title></rect><rect fill="#EBEDF0" height="2.6" rx="0.5" ry="0.5" width="2.6" x="153.5" y="37.5"><title>2023-10-15</title></rect><rect fill="#EBEDF0" height="2.6" rx="0.5" ry="0.5" width="2.6" x="157.0" y="16.5"><title>2023-10-16</title></rect><rect fill="#EBEDF0" height="2.6" rx="0.5" ry="0.5" width="2.6" x="157.0" y="20.0"><title>2023-10-17</title></rect><rect fill="#EBEDF0" height="2.6" rx="0.5" ry="0.5" width="2.6" x="157.0" y="23.5"><title>2023-10-18</title></rect><rect fill="#EBEDF0" height="2.6" rx="0.5" ry="0.5" width="2.6" x="157.0" y="27.0"><title>2023-10-19</title></rect><rect fill="#EBEDF0" height="2.6" rx="0.5" ry="0.5" width="2.6" x="157.0" y="30.5"><title>2023-10-20</title></rect><rect fill="#EBEDF0" height="2.6" rx="0.5" ry="0.5" width="2.6" x="157.0" y="34.0"><title>2023-10-21</title></rect><rect fill="#EBEDF0" height="2.6" rx="0.5" ry="0.5" width="2.6" x="157.0" y="37.5"><title>2023-10-22</title></rect><rect fill="#EBEDF0" height="2.6" rx="0.5" ry="0.5" width="2.6" x="160.5" y="16.5"><title>2023-10-23</title></rect><rect fill="#EBEDF0" height="2.6" rx="0.5" ry="0.5" width="2.6" x="160.5" y="20.0"><title>2023-10-24</title></rect><rect fill="#EBEDF0" height="2.6" rx="0.5" ry="0.5" width="2.6" x="160.5" y="23.5"><title>2023-10-25</title></rect><rect fill="#EBEDF0" height="2.6" rx="0.5" ry="0.5" width="2.6" x="160.5" y="27.0"><title>2023-10-26</title></rect><rect fill="#EBEDF0" height="2.6" rx="0.5" ry="0.5" width="2.6" x="160.5" y="30.5"><title>2023-10-27</title></rect><rect fill="#EBEDF0" height="2.6" rx="0.5" ry="0.5" width="2.6" x="160.5" y="34.0"><title>2023-10-28</title></rect><rect fill="#EBEDF0" height="2.6" rx="0.5" ry="0.5" width="2.6" x="160.5" y="37.5"><title>2023-10-29</title></rect><rect fill="#EBEDF0" height="2.6" rx="0.5" ry="0.5" width="2.6" x="164.0" y="16.5"><title>2023-10-30</title></rect><rect fill="#EBEDF0" height="2.6" rx="0.5" ry="0.5" width="2.6" x="164.0" y="20.0"><title>2023-10-31</title></rect><rect fill="#EBEDF0" height="2.6" rx="0.5" ry="0.5" width="2.6" x="164.0" y="23.5"><title>2023-11-01</title></rect><rect fill="#EBEDF0" height="2.6" rx="0.5" ry="0.5" width="2.6" x="164.0" y="27.0"><title>2023-11-02</title></rect><rect fill="#EBEDF0" height="2.6" rx="0.5" ry="0.5" width="2.6" x="164.0" y="30.5"><title>2023-11-03</title></rect><rect fill="#EBEDF0" height="2.6" rx="0.5" ry="0.5" width="2.6" x="164.0" y="34.0"><title>2023-11-04</title></rect><rect fill="#EBEDF0" height="2.6" rx="0.5" ry="0.5" width="2.6" x="164.0" y="37.5"><title>2023-11-05</title></rect><rect fill="#EBEDF0" height="2.6" rx="0.5" ry="0.5" width="2.6" x="167.5" y="16.5"><title>2023-11-06</title></rect><rect fill="#EBEDF0" height="2.6" rx="0.5" ry="0.5" width="2.6" x="167.5" y="20.0"><title>2023-11-07</title></rect><rect fill="#EBEDF0" height="2.6" rx="0.5" ry="0.5" width="2.6" x="167.5" y="23.5"><title>2023-11-08</title></rect><rect fill="#EBEDF0" height="2.6" rx="0.5" ry="0.5" width="2.6" x="167.5" y="27.0"><title>2023-11-09</title></rect><rect fill="#EBEDF0" height="2.6" rx="0.5" ry="0.5" width="2.6" x="167.5" y="30.5"><title>2023-11-10</title></rect><rect fill="#EBEDF0" height="2.6" rx="0.5" ry="0.5" width="2.6" x="167.5" y="34.0"><title>2023-11-11</title></rect><rect fill="#EBEDF0" height="2.6" rx="0.5" ry="0.5" width="2.6" x="167.5" y="37.5"><title>2023-11-12</title></rect><rect fill="#EBEDF0" height="2.6" rx="0.5" ry="0.5" width="2.6" x="171.0" y="16.5"><title>2023-11-13</title></rect><rect fill="#EBEDF0" height="2.6" rx="0.5" ry="0.5" width="2.6" x="171.0" y="20.0"><title>2023-11-14</title></rect><rect fill="#EBEDF0" height="2.6" rx="0.5" ry="0.5" width="2.6" x="171.0" y="23.5"><title>2023-11-15</title></rect><rect fill="#EBEDF0" height="2.6" rx="0.5" ry="0.5" width="2.6" x="171.0" y="27.0"><title>2023-11-16</title></rect><rect fill="#EBEDF0" height="2.6" rx="0.5" ry="0.5" width="2.6" x="171.0" y="30.5"><title>2023-11-17</title></rect><rect fill="#EBEDF0" height="2.6" rx="0.5" ry="0.5" width="2.6" x="171.0" y="34.0"><title>2023-11-18</title></rect><rect fill="#EBEDF0" height="2.6" rx="0.5" ry="0.5" width="2.6" x="171.0" y="37.5"><title>2023-11-19</title></rect><rect fill="#EBEDF0" height="2.6" rx="0.5" ry="0.5" width="2.6" x="174.5" y="16.5"><title>2023-11-20</title></rect><rect fill="#EBEDF0" height="2.6" rx="0.5" ry="0.5" width="2.6" x="174.5" y="20.0"><title>2023-11-21</title></rect><rect fill="#EBEDF0" height="2.6" rx="0.5" ry="0.5" width="2.6" x="174.5" y="23.5"><title>2023-11-22</title></rect><rect fill="#EBEDF0" height="2.6" rx="0.5" ry="0.5" width="2.6" x="174.5" y="27.0"><title>2023-11-23</title></rect><rect fill="#EBEDF0" height="2.6" rx="0.5" ry="0.5" width="2.6" x="174.5" y="30.5"><title>2023-11-24</title></rect><rect fill="#EBEDF0" height="2.6" rx="0.5" ry="0.5" width="2.6" x="174.5" y="34.0"><title>2023-11-25</title></rect><rect fill="#EBEDF0" height="2.6" rx="0.5" ry="0.5" width="2.6" x="174.5" y="37.5"><title>2023-11-26</title></rect><rect fill="#EBEDF0" height="2.6" rx="0.5" ry="0.5" width="2.6" x="178.0" y="16.5"><title>2023-11-27</title></rect><rect fill="#EBEDF0" height="2.6" rx="0.5" ry="0.5" width="2.6" x="178.0" y="20.0"><title>2023-11-28</title></rect><rect fill="#EBEDF0" height="2.6" rx="0.5" ry="0.5" width="2.6" x="178.0" y="23.5"><title>2023-11-29</title></rect><rect fill="#EBEDF0" height="2.6" rx="0.5" ry="0.5" width="2.6" x="178.0" y="27.0"><title>2023-11-30</title></rect><rect fill="#EBEDF0" height="2.6" rx="0.5" ry="0.5" width="2.6" x="178.0" y="30.5"><title>2023-12-01</title></rect><rect fill="#EBEDF0" height="2.6" rx="0.5" ry="0.5" width="2.6" x="178.0" y="34.0"><title>2023-12-02</title></rect><rect fill="#EBEDF0" height="2.6" rx="0.5" ry="0.5" width="2.6" x="178.0" y="37.5"><title>2023-12-03</title></rect><rect fill="#EBEDF0" height="2.6" rx="0.5" ry="0.5" width="2.6" x="181.5" y="16.5"><title>2023-12-04</title></rect><rect fill="#EBEDF0" height="2.6" rx="0.5" ry="0.5" width="2.6" x="181.5" y="20.0"><title>2023-12-05</title></rect><rect fill="#EBEDF0" height="2.6" rx="0.5" ry="0.5" width="2.6" x="181.5" y="23.5"><title>2023-12-06</title></rect><rect fill="#EBEDF0" height="2.6" rx="0.5" ry="0.5" width="2.6" x="181.5" y="27.0"><title>2023-12-07</title></rect><rect fill="#EBEDF0" height="2.6" rx="0.5" ry="0.5" width="2.6" x="181.5" y="30.5"><title>2023-12-08</title></rect><rect fill="#EBEDF0" height="2.6" rx="0.5" ry="0.5" width="2.6" x="181.5" y="34.0"><title>2023-12-09</title></rect><rect fill="#EBEDF0" height="2.6" rx="0.5" ry="0.5" width="2.6" x="181.5" y="37.5"><title>2023-12-10</title></rect><rect fill="#EBEDF0" height="2.6" rx="0.5" ry="0.5" width="2.6" x="185.0" y="16.5"><title>2023-12-11</title></rect><rect fill="#EBEDF0" height="2.6" rx="0.5" ry="0.5" width="2.6" x="185.0" y="20.0"><title>2023-12-12</title></rect><rect fill="#EBEDF0" height="2.6" rx="0.5" ry="0.5" width="2.6" x="185.0" y="23.5"><title>2023-12-13</title></rect><rect fill="#EBEDF0" height="2.6" rx="0.5" ry="0.5" width="2.6" x="185.0" y="27.0"><title>2023-12-14</title></rect><rect fill="#EBEDF0" height="2.6" rx="0.5" ry="0.5" width="2.6" x="185.0" y="30.5"><title>2023-12-15</title></rect><rect fill="#EBEDF0" height="2.6" rx="0.5" ry="0.5" width="2.6" x="185.0" y="34.0"><title>2023-12-16</title></rect><rect fill="#EBEDF0" height="2.6" rx="0.5" ry="0.5" width="2.6" x="185.0" y="37.5"><title>2023-12-17</title></rect><rect fill="#EBEDF0" height="2.6" rx="0.5" ry="0.5" width="2.6" x="188.5" y="16.5"><title>2023-12-18</title></rect><rect fill="#EBEDF0" height="2.6" rx="0.5" ry="0.5" width="2.6" x="188.5" y="20.0"><title>2023-12-19</title></rect><rect fill="#EBEDF0" height="2.6" rx="0.5" ry="0.5" width="2.6" x="188.5" y="23.5"><title>2023-12-20</title></rect><rect fill="#EBEDF0" height="2.6" rx="0.5" ry="0.5" width="2.6" x="188.5" y="27.0"><title>2023-12-21</title></rect><rect fill="#EBEDF0" height="2.6" rx="0.5" ry="0.5" width="2.6" x="188.5" y="30.5"><title>2023-12-22</title></rect><rect fill="#EBEDF0" height="2.6" rx="0.5" ry="0.5" width="2.6" x="188.5" y="34.0"><title>2023-12-23</title></rect><rect fill="#EBEDF0" height="2.6" rx="0.5" ry="0.5" width="2.6" x="188.5" y="37.5"><title>2023-12-24</title></rect><rect fill="#EBEDF0" height="2.6" rx="0.5" ry="0.5" width="2.6" x="192.0" y="16.5"><title>2023-12-25</title></rect><rect fill="#EBEDF0" height="2.6" rx="0.5" ry="0.5" width="2.6" x="192.0" y="20.0"><title>2023-12-26</title></rect><rect fill="#EBEDF0" height="2.6" rx="0.5" ry="0.5" width="2.6" x="192.0" y="23.5"><title>2023-12-27</title></rect><rect fill="#EBEDF0" height="2.6" rx="0.5" ry="0.5" width="2.6" x="192.0" y="27.0"><title>2023-12-28</title></rect><rect fill="#EBEDF0" height="2.6" rx="0.5" ry="0.5" width="2.6" x="192.0" y="30.5"><title>2023-12-29</title></rect><rect fill="#EBEDF0" height="2.6" rx="0.5" ry="0.5" width="2.6" x="192.0" y="34.0"><title>2023-12-30</title></rect><rect fill="#EBEDF0" height="2.6" rx="0.5" ry="0.5" width="2.6" x="192.0" y="37.5"><title>2023-12-31</title></rect></svg>